<?xml version="1.0" standalone="no"?>
<!DOCTYPE svg PUBLIC "-//W3C//DTD SVG 1.1//EN" "http://www.w3.org/Graphics/SVG/1.1/DTD/svg11.dtd" >
<svg xmlns="http://www.w3.org/2000/svg">
<metadata>
This is a custom SVG webfont generated by Font Squirrel.
Copyright   : Copyright c Michael D Adams 2007 All rights reserved
Designer    : Michael D Adams
Foundry     : Michael D Adams
</metadata>
<defs>
<font id="Roadgeek2005Series3BRegular" horiz-adv-x="1304" >
<font-face units-per-em="2048" ascent="1638" descent="-410" />
<missing-glyph horiz-adv-x="847" />
<glyph unicode=" "  horiz-adv-x="847" />
<glyph unicode="&#x09;" horiz-adv-x="847" />
<glyph unicode="&#xa0;" horiz-adv-x="847" />
<glyph unicode="!" horiz-adv-x="684" d="M176 121q0 61 46 100t116 39t115 -39t45 -100q0 -66 -45 -106t-115 -40t-116 40t-46 106zM231 416v999h213v-999h-213z" />
<glyph unicode="&#x22;" horiz-adv-x="1148" d="M209 1483h278l-57 -490h-172zM655 1483h283l-59 -490h-174z" />
<glyph unicode="#" horiz-adv-x="1265" d="M61 514l23 191h213l33 272h-213l24 186h215l35 252h195l-31 -252h248l37 252h196l-35 -252h201l-28 -186h-199l-39 -272h213l-25 -191h-217l-37 -268h-202l37 268h-234l-37 -268h-196l36 268h-213zM494 705h243l37 272h-246z" />
<glyph unicode="$" horiz-adv-x="987" d="M47 184l86 205q178 -127 344 -127q201 0 201 160q0 104 -119 162l-229 112q-131 63 -195.5 141t-64.5 195q0 133 77.5 223.5t227.5 114.5v160h233v-160q119 -10 266 -78l-71 -209q-139 91 -291 91q-186 0 -186 -127q0 -53 31.5 -82t119.5 -76l205 -98 q125 -59 185.5 -142.5t60.5 -210.5q0 -143 -79 -241.5t-241 -120.5v-174h-235v174q-162 10 -326 108z" />
<glyph unicode="%" horiz-adv-x="1763" d="M104 1036q0 186 78 294t230 108q147 0 223 -108.5t76 -293.5q0 -190 -77 -298.5t-231 -108.5q-150 0 -224.5 109.5t-74.5 297.5zM276 1032q0 -121 27 -187.5t105 -66.5q131 0 131 254q0 123 -27 189.5t-104.5 66.5t-104.5 -66.5t-27 -189.5zM395 0l776 1415h189 l-776 -1415h-189zM1044 387q0 184 80 292.5t232 108.5q143 0 222 -109.5t79 -291.5q0 -188 -78 -297.5t-231 -109.5q-152 0 -228 110.5t-76 296.5zM1219 383q0 -119 27.5 -186.5t103.5 -67.5q133 0 133 254t-133 254q-78 0 -104.5 -66.5t-26.5 -187.5z" />
<glyph unicode="&#x26;" d="M162 426q0 133 58.5 224t158.5 120v4q-178 74 -178 291q0 180 116.5 276.5t309.5 96.5q141 0 264 -54l-57 -196q-82 43 -185 43q-197 0 -196 -182q0 -98 63.5 -138.5t183.5 -40.5h168v177h242v-177h164v-211h-164v-172q0 -506 -469 -505q-233 0 -356 114.5t-123 329.5z M410 438q0 -254 231 -254q135 0 181 72t46 236v167h-252q-106 0 -156 -51t-50 -170z" />
<glyph unicode="'" horiz-adv-x="552" d="M133 1483h279l-58 -490h-170z" />
<glyph unicode="(" horiz-adv-x="557" d="M66 682q0 477 176 969l184 -49q-127 -465 -127 -920q0 -483 127 -918l-184 -49q-176 510 -176 967z" />
<glyph unicode=")" horiz-adv-x="552" d="M117 -236q127 457 127 918q0 455 -127 920l184 49q178 -508 178 -969q0 -430 -178 -969z" />
<glyph unicode="*" horiz-adv-x="757" d="M41 1178l65 190l199 -100l4 6l-41 209h211l-35 -205l2 -10l197 102l66 -188l-222 -27v-10l158 -146l-166 -118l-98 196h-10l-95 -196l-167 116l157 148v10z" />
<glyph unicode="+" horiz-adv-x="919" d="M2 469v223h340v334h236v-334h337v-223h-337v-354h-236v354h-340z" />
<glyph unicode="," horiz-adv-x="493" d="M131 -276l72 514h274l-174 -514h-172z" />
<glyph unicode="-" horiz-adv-x="1026" d="M260 500v245h492v-245h-492z" />
<glyph unicode="." horiz-adv-x="602" d="M135 123q0 61 46 101t113.5 40t113 -40t45.5 -101q0 -66 -45.5 -107t-112.5 -41q-70 0 -115 41t-45 107z" />
<glyph unicode="/" horiz-adv-x="905" d="M0 -244l684 1727h221l-682 -1727h-223z" />
<glyph unicode="0" horiz-adv-x="1359" d="M145 713q0 330 134.5 527.5t398.5 197.5t398 -198t134 -527q0 -334 -131 -536t-401 -202q-272 0 -402.5 201t-130.5 537zM408 707q0 -119 12 -208t42 -161t84 -110t132 -38q150 0 209 134.5t59 382.5q0 113 -11 198.5t-39 161.5t-83 116t-135 40q-84 0 -139.5 -40 t-83 -117t-37.5 -160.5t-10 -198.5z" />
<glyph unicode="1" horiz-adv-x="983" d="M193 1079l382 340h207v-1419h-252v1083h-6l-217 -194z" />
<glyph unicode="2" horiz-adv-x="1224" d="M158 227q348 342 444 459q172 205 172 350q0 182 -172 183q-152 0 -303 -164l-133 190q113 100 218 146.5t237 46.5q193 0 303 -100.5t110 -288.5q0 -182 -134 -366.5t-468 -465.5h606v-217h-843z" />
<glyph unicode="3" horiz-adv-x="1175" d="M131 102l100 195q152 -106 304 -107q233 0 233 230q0 111 -52 162t-159 51h-160v211h68q270 0 270 192q0 184 -200 185q-133 0 -279 -109l-104 188q201 133 421 134q188 0 302 -97.5t114 -281.5q0 -207 -176 -297v-4q211 -61 211 -340q0 -205 -123 -322t-352 -117 q-234 0 -418 127z" />
<glyph unicode="4" horiz-adv-x="1095" d="M0 489l563 926h281v-909h180v-215h-180v-291h-264v291h-527zM248 506h346v602h-6z" />
<glyph unicode="5" horiz-adv-x="1175" d="M152 98l104 195q139 -109 274 -109q246 0 246 299q0 283 -223 283q-141 0 -225 -129l-162 129l96 649h688v-225h-485l-51 -301l4 -4q84 78 217 78q188 0 292.5 -123t104.5 -353q0 -242 -126 -377t-361 -135q-229 0 -393 123z" />
<glyph unicode="6" horiz-adv-x="1216" d="M143 649q0 788 531 789q174 0 325 -86l-90 -193q-117 68 -225 68q-137 0 -210 -103.5t-77 -335.5h4q86 139 271 140q195 0 307.5 -123t112.5 -336q0 -219 -126 -356.5t-337 -137.5q-250 0 -368 179.5t-118 494.5zM416 459q0 -127 54 -198t163 -71q102 0 157.5 74 t55.5 201q0 121 -54.5 190.5t-158.5 69.5q-102 0 -159.5 -71.5t-57.5 -194.5z" />
<glyph unicode="7" horiz-adv-x="997" d="M76 1190v225h864l35 -219q-236 -229 -309.5 -440t-73.5 -662v-94h-266v72q0 168 12 298t48 283.5t115 288.5t199 244v4h-624z" />
<glyph unicode="8" horiz-adv-x="1277" d="M154 412q0 129 51 212t162 132v6q-96 51 -137.5 120.5t-41.5 180.5q0 182 117 278.5t332 96.5q211 0 329.5 -94.5t118.5 -280.5q0 -109 -40.5 -179.5t-135.5 -121.5v-6q111 -49 162 -132t51 -212q0 -211 -120.5 -324t-362.5 -113t-363.5 113t-121.5 324zM412 408 q0 -113 53 -171.5t174 -58.5q225 0 225 232q0 238 -227 237q-225 1 -225 -239zM442 1042q0 -201 195 -200q197 0 197 200q0 100 -46.5 148.5t-148.5 48.5q-197 0 -197 -197z" />
<glyph unicode="9" horiz-adv-x="1218" d="M115 948q0 211 130 350.5t341 139.5q481 0 481 -709q0 -369 -127 -561.5t-405 -192.5q-186 0 -332 101l98 184q113 -76 234 -76q143 0 212.5 108.5t69.5 344.5h-4q-80 -156 -270.5 -156t-309 130t-118.5 337zM365 952q0 -256 215 -256q102 0 158.5 71t56.5 187 q0 270 -215 271q-102 0 -158.5 -74t-56.5 -199z" />
<glyph unicode=":" horiz-adv-x="669" d="M166 123q0 61 46 101t113.5 40t110.5 -40t43 -101q0 -66 -43 -107t-110 -41q-70 0 -115 41t-45 107zM166 858q0 63 45 102t115 39q68 0 110.5 -39.5t42.5 -101.5q0 -66 -43 -105.5t-110 -39.5q-70 0 -115 39.5t-45 105.5z" />
<glyph unicode=";" horiz-adv-x="522" d="M115 -287l71 533h285l-180 -533h-176zM160 889q0 66 48 106.5t118 40.5q68 0 112.5 -41t44.5 -106q0 -68 -45 -111t-112 -43q-70 0 -118 43t-48 111z" />
<glyph unicode="&#x3c;" horiz-adv-x="1163" d="M0 469v211l1073 475v-211l-844 -366l844 -369v-209z" />
<glyph unicode="=" horiz-adv-x="1218" d="M260 238v217h787v-217h-787zM260 659v222h787v-222h-787z" />
<glyph unicode="&#x3e;" horiz-adv-x="1333" d="M260 0v209l846 364l-846 371v211l1073 -475v-211z" />
<glyph unicode="?" horiz-adv-x="901" d="M63 1305q184 133 404 133q195 0 301 -103.5t106 -283.5q0 -131 -51 -217t-157 -150l-86 -55q-45 -27 -54.5 -48.5t-9.5 -88.5v-103h-240v156q0 96 21.5 136t95.5 85l84 45q80 49 114 94t34 125q0 92 -49.5 142.5t-145.5 50.5q-141 0 -266 -109zM231 120.5 q0 65.5 45.5 103.5t115 38t112.5 -39t43 -102.5t-43 -104.5t-112.5 -41t-115 40t-45.5 105.5z" />
<glyph unicode="@" horiz-adv-x="1581" d="M133 686q0 342 208 547t519 205q264 0 430 -159t166 -450q0 -260 -107.5 -392t-244.5 -132q-55 0 -101.5 32t-58.5 95h-4q-84 -121 -225 -121q-113 0 -180.5 86t-67.5 242q0 182 85 316.5t245 134.5q111 0 161 -86h5l8 67h178l-68 -573v-4q0 -57 60 -58q68 0 128 101.5 t60 302.5q0 225 -125 353t-340 128q-272 0 -433 -173t-161 -470q0 -287 138.5 -442.5t384.5 -155.5q229 0 383 137l63 -108q-178 -145 -459 -146q-291 0 -469 182.5t-178 540.5zM649 621q0 -158 117 -158q72 0 105.5 46t46.5 138l18 146v30q0 55 -23.5 85t-89.5 30 q-90 0 -132 -76.5t-42 -240.5z" />
<glyph unicode="A" horiz-adv-x="1306" d="M47 0l447 1419h311l455 -1419h-285l-94 322h-459l-98 -322h-277zM469 543h360l-178 631h-10z" />
<glyph unicode="B" horiz-adv-x="1402" d="M260 0v1405q236 25 440 25q502 0 502 -381q0 -229 -201 -301v-5q248 -55 248 -348q0 -395 -454 -395h-535zM520 203q43 -4 117 -4h80q143 0 203.5 40t60.5 173t-69.5 177t-196.5 44q-80 0 -195 -4v-426zM520 825q27 -2 84 -2h96q133 0 186.5 41t53.5 158 q0 104 -56.5 151.5t-183.5 47.5q-125 0 -180 -9v-387z" />
<glyph unicode="C" horiz-adv-x="1503" d="M225 711q0 201 59.5 360.5t198 263t338.5 103.5q246 0 443 -209l-160 -180q-131 166 -283 165q-162 0 -241.5 -134t-79.5 -369q0 -100 15 -185.5t50 -162t101.5 -120.5t158.5 -44q88 0 159 40t151 126l137 -183q-195 -207 -455 -207q-205 0 -341 99.5t-193.5 260.5 t-57.5 376z" />
<glyph unicode="D" horiz-adv-x="1435" d="M260 0v1405q178 25 420 25q301 0 462 -187.5t161 -527.5q0 -342 -159 -528.5t-478 -186.5h-406zM520 213q111 -4 137 -4q190 0 280.5 122t90.5 390q0 500 -338 500q-113 0 -170 -9v-999z" />
<glyph unicode="E" horiz-adv-x="1290" d="M260 0v1415h787v-225h-527v-344h475v-225h-475v-404h545v-217h-805z" />
<glyph unicode="F" horiz-adv-x="1034" d="M260 0v1415h772v-225h-512v-350h459v-228h-459v-612h-260z" />
<glyph unicode="G" horiz-adv-x="1359" d="M131 704.5q0 315.5 154.5 524.5t441.5 209q225 0 432 -189l-151 -184q-68 76 -133.5 112.5t-147.5 36.5q-92 0 -158.5 -45t-100.5 -122.5t-48 -160.5t-14 -179q0 -522 317 -523q80 0 133 30t80 85t37 116.5t10 143.5h-256v219h512v-149q0 -653 -522 -654 q-283 0 -434.5 207t-151.5 522.5z" />
<glyph unicode="H" horiz-adv-x="1519" d="M260 0v1415h260v-545h471v545h260v-1415h-260v625h-471v-625h-260z" />
<glyph unicode="I" horiz-adv-x="808" d="M260 0v1415h260v-1415h-260z" />
<glyph unicode="J" horiz-adv-x="927" d="M0 76l104 198q90 -76 189 -75q72 0 102.5 44t30.5 136v1036h262v-1032q0 -408 -369 -408q-182 1 -319 101z" />
<glyph unicode="K" horiz-adv-x="1415" d="M260 0v1415h258v-618h12l390 618h313l-426 -627l467 -788h-316l-335 600l-103 -135v-465h-260z" />
<glyph unicode="L" horiz-adv-x="999" d="M260 0v1415h260v-1194h479v-221h-739z" />
<glyph unicode="M" horiz-adv-x="1718" d="M260 0v1415h248l346 -590l350 590h248v-1415h-256v950h-8l-334 -563l-334 559h-6v-946h-254z" />
<glyph unicode="N" horiz-adv-x="1591" d="M260 0v1415h254l555 -909h4v909h252v-1415h-233l-576 922h-4v-922h-252z" />
<glyph unicode="O" horiz-adv-x="1497" d="M143 709q0 338 154 533.5t451 195.5q293 0 447.5 -197t154.5 -532q0 -340 -155 -537t-447.5 -197t-448.5 197t-156 537zM418 709q0 -248 72.5 -381t259.5 -133q180 0 252.5 135t72.5 379q0 246 -73.5 379t-258.5 133q-125 0 -198.5 -69t-100 -176t-26.5 -267z" />
<glyph unicode="P" horiz-adv-x="1208" d="M260 0v1405q211 25 426 25q520 0 520 -457q0 -461 -463 -461h-223v-512h-260zM520 725h185q129 0 180 49t51 199q0 137 -51 190.5t-185 53.5q-113 0 -180 -9v-483z" />
<glyph unicode="Q" horiz-adv-x="1460" d="M76 709q0 334 151.5 531.5t452.5 197.5q299 0 451.5 -198t152.5 -531q0 -424 -233 -611v-4q33 -8 89 -52t130 -58l-82 -193q-84 4 -166 52t-142.5 93.5t-97.5 45.5q-14 0 -38.5 -3.5t-43.5 -3.5q-311 0 -467.5 193t-156.5 541zM350 709q0 -119 14.5 -206t50.5 -160 t102.5 -110.5t164.5 -37.5q94 0 160.5 38.5t101.5 111.5t50.5 161t15.5 203q0 119 -15.5 205.5t-51.5 159.5t-102.5 110t-164.5 37q-182 0 -254 -135t-72 -377z" />
<glyph unicode="R" horiz-adv-x="1388" d="M260 0v1405q195 25 430.5 25t375.5 -100.5t140 -325.5q0 -283 -221 -371v-4q23 -6 49 -76l195 -553h-277l-161 494q-12 37 -26.5 50t-45.5 13h-199v-557h-260zM522 766h199q109 0 163 51t54 172q0 119 -58.5 174.5t-185.5 55.5q-96 0 -172 -9v-444z" />
<glyph unicode="S" horiz-adv-x="1189" d="M117 117l96 215q182 -137 356 -137q225 0 226 184q0 49 -22.5 89t-71 71.5t-89.5 50t-114 47.5l-72 34l-65 34q-50 27 -66 43l-50 50q-34 34 -46.5 66.5t-24.5 80.5t-12 104q0 188 128 286.5t310 98.5q211 0 401 -113l-75 -213q-158 111 -303 111q-90 0 -147.5 -39 t-57.5 -121q0 -25 6 -45.5t24.5 -39t33 -30.5t46 -28.5t49 -24.5t59.5 -24.5t60 -24.5q82 -35 130 -61.5t107.5 -76t88.5 -124t29 -172.5q0 -217 -127 -322.5t-342 -105.5q-254 0 -465 137z" />
<glyph unicode="T" horiz-adv-x="1009" d="M43 1188v227h920v-227h-330v-1188h-260v1188h-330z" />
<glyph unicode="U" horiz-adv-x="1445" d="M219 573v842h260v-848q0 -184 49.5 -276t190.5 -92q143 0 192.5 92t49.5 276v848h262v-842q0 -299 -114 -448.5t-390.5 -149.5t-388 148.5t-111.5 449.5z" />
<glyph unicode="V" horiz-adv-x="1204" d="M47 1415h281l272 -1149h6l271 1149h278l-401 -1415h-310z" />
<glyph unicode="W" horiz-adv-x="1959" d="M133 1415h279l182 -1079h4l264 1079h240l258 -1079h8l182 1079h275l-307 -1415h-299l-238 952h-10l-236 -952h-301z" />
<glyph unicode="X" horiz-adv-x="1437" d="M154 0l397 735l-354 680h301l221 -487h8l221 487h293l-362 -700l385 -715h-293l-260 516l-260 -516h-297z" />
<glyph unicode="Y" horiz-adv-x="1167" d="M23 1415h288l277 -641l276 641h279l-426 -866v-549h-262v539z" />
<glyph unicode="Z" horiz-adv-x="1359" d="M227 0v205l580 983h-551v227h852v-205l-582 -993h600v-217h-899z" />
<glyph unicode="[" horiz-adv-x="731" d="M260 -256v1898h426v-159h-203v-1581h203v-158h-426z" />
<glyph unicode="\" horiz-adv-x="905" d="M0 1483h219l686 -1727h-215z" />
<glyph unicode="]" horiz-adv-x="745" d="M41 -98h199v1581h-199v159h428v-1898h-428v158z" />
<glyph unicode="^" horiz-adv-x="980" d="M59 1243l426 227l435 -227l-121 -180l-307 164l-318 -164z" />
<glyph unicode="_" horiz-adv-x="1411" d="M260 -174h883v-166h-883v166z" />
<glyph unicode="`" horiz-adv-x="499" d="M0 1505l215 121l266 -250l-139 -80z" />
<glyph unicode="a" horiz-adv-x="1259" d="M150 326q0 123 58 211t158.5 131t205 61.5t225.5 18.5v40q0 100 -32 146.5t-124 46.5q-186 0 -375 -107l-71 189q233 115 458 115q221 0 309.5 -101.5t88.5 -314.5v-488q0 -68 13 -96t56 -57l-157 -137q-119 29 -144 133h-4q-152 -141 -344 -142q-152 0 -236.5 95.5 t-84.5 255.5zM399 336q0 -82 37 -132t113 -50q131 0 246 108v326q-396 0 -396 -252z" />
<glyph unicode="b" horiz-adv-x="1232" d="M258 0v1534h256v-494q78 137 266 138q213 0 318.5 -164t105.5 -432q0 -117 -22.5 -221.5t-70.5 -192.5t-132 -140.5t-197 -52.5q-186 0 -282 164h-4l-31 -139h-207zM510 451q0 -125 50 -203t159 -78q225 0 225 408q0 92 -7 156.5t-29.5 124t-68.5 89t-116 29.5 q-213 0 -213 -234v-292z" />
<glyph unicode="c" horiz-adv-x="1161" d="M127 578q0 262 130 431t386 169q188 0 356 -123l-102 -185q-115 104 -248 105q-76 0 -131 -36t-81.5 -97.5t-38 -124t-11.5 -135.5q0 -76 12.5 -141.5t40 -128t83 -98.5t130.5 -36q137 0 271 105l80 -189q-174 -119 -375 -119q-254 0 -378 168.5t-124 434.5z" />
<glyph unicode="d" horiz-adv-x="1239" d="M27 582q0 268 104.5 432t317.5 164q186 0 266 -134h2v490h256v-1534h-221l-15 135h-8q-100 -160 -280 -160q-113 0 -198 52.5t-132 141.5t-69.5 192.5t-22.5 220.5zM287 578q0 -408 223 -408q209 0 209 276v297q0 233 -211 234q-70 0 -116 -29.5t-67.5 -89t-29.5 -124 t-8 -156.5z" />
<glyph unicode="e" horiz-adv-x="1234" d="M137 578q0 293 137.5 446.5t368.5 153.5q225 0 342 -152t117 -442q0 -20 -4 -90h-701q0 -319 269 -320q147 0 297 100l73 -188q-170 -111 -385 -111q-246 0 -380 160t-134 443zM395 666h467q0 319 -219 319q-117 0 -182.5 -82.5t-65.5 -236.5z" />
<glyph unicode="f" horiz-adv-x="690" d="M25 930v209h145v80q0 186 72.5 257.5t273.5 71.5q74 0 127 -10v-190q-43 8 -92 8q-76 0 -102.5 -25.5t-26.5 -93.5v-98h207v-209h-203v-930h-256v930h-145z" />
<glyph unicode="g" horiz-adv-x="1335" d="M141 588q0 119 20.5 218t66.5 186t131 136.5t204 49.5q193 0 281 -148h4l14 125h230v-1151q0 -233 -99.5 -344t-347.5 -111q-227 0 -436 105l76 205q178 -100 358 -101q106 0 149.5 46t43.5 167v195h-5q-98 -141 -268 -141q-207 0 -314.5 149.5t-107.5 413.5zM401 592 q0 -92 14.5 -168t68 -139.5t139.5 -63.5q215 0 215 309v199q0 111 -54.5 179.5t-160.5 68.5q-127 0 -174.5 -102.5t-47.5 -282.5z" />
<glyph unicode="h" horiz-adv-x="1226" d="M260 0v1534h256v-485q94 129 293 129q203 0 280.5 -124t77.5 -370v-684h-256v657q0 61 -2 97.5t-11 81.5t-28.5 68.5t-54.5 41t-86 17.5q-213 0 -213 -263v-700h-256z" />
<glyph unicode="i" horiz-adv-x="628" d="M150 1446q0 66 41.5 102.5t113.5 36.5q74 0 116 -37t42 -102q0 -63 -44 -102t-114 -39q-72 0 -113.5 39t-41.5 102zM178 0v1155h256v-1155h-256z" />
<glyph unicode="j" horiz-adv-x="722" d="M0 -221q47 -6 115 -6q49 0 80.5 12t49 29.5t26 55.5t10.5 69.5t2 91.5v1124h256v-1143q0 -223 -87 -342t-303 -119q-72 0 -149 13v215zM254 1446q0 66 42 102.5t114 36.5q74 0 115.5 -37t41.5 -102q0 -63 -44 -102t-113 -39q-72 0 -114 39t-42 102z" />
<glyph unicode="k" horiz-adv-x="1263" d="M170 0v1534h256v-879h4l340 500h295l-340 -481l360 -674h-290l-250 506l-123 -156v-350h-252z" />
<glyph unicode="l" horiz-adv-x="698" d="M248 242v1292h256v-1229q0 -66 20.5 -84t81.5 -18h58v-203q-82 -14 -168 -14q-141 0 -194.5 56.5t-53.5 199.5z" />
<glyph unicode="m" horiz-adv-x="1992" d="M260 0v1155h232l16 -123h4q84 145 274 146q203 0 279 -160q57 88 132 124t181 36q199 0 284 -115t85 -354v-709h-256v680q0 143 -32 213t-134 70q-193 0 -192 -238v-725h-256v682q0 145 -31 213t-135 68q-195 0 -195 -238v-725h-256z" />
<glyph unicode="n" horiz-adv-x="1400" d="M260 0v1155h223l19 -123h6q88 145 301 146q203 0 279.5 -123t76.5 -371v-684h-256v657q0 63 -2 99.5t-11 81.5t-27.5 68.5t-53.5 40t-86 16.5q-213 0 -213 -263v-700h-256z" />
<glyph unicode="o" d="M145 578q0 274 127 437t379 163q248 0 376 -159t128 -441q0 -281 -128 -442t-376 -161q-250 0 -378 160t-128 443zM406 578q0 -197 53 -298.5t192.5 -101.5t191.5 101.5t52 298.5q0 86 -10.5 150.5t-35 122.5t-74.5 89t-124 31q-141 0 -193 -105.5t-52 -287.5z" />
<glyph unicode="p" horiz-adv-x="1224" d="M260 -436v1591h223l19 -123h4q88 145 278 146q117 0 203 -53.5t131 -143.5t66.5 -188.5t21.5 -208.5q0 -113 -21.5 -213.5t-67.5 -192.5t-133 -147.5t-204 -55.5q-92 0 -152.5 31t-107.5 103h-4v-545h-256zM512 451q0 -279 209 -279q225 0 225 406q0 63 -2 107 t-15.5 103.5t-36 97.5t-66.5 64.5t-105 26.5q-106 0 -157.5 -66.5t-51.5 -177.5v-282z" />
<glyph unicode="q" horiz-adv-x="1206" d="M18 584q0 117 21.5 217t69 188t132.5 138.5t199 50.5q195 0 281 -146h4l12 123h232v-1278q0 -74 12 -108.5t72 -69.5l-156 -176q-111 31 -147.5 101.5t-36.5 201.5v283h-8q-82 -133 -261 -134q-215 0 -320.5 170.5t-105.5 438.5zM279 578q0 -115 14 -197t67.5 -145.5 t145.5 -63.5q207 0 207 293v268q0 244 -207 244q-96 0 -148.5 -57.5t-65.5 -135t-13 -206.5z" />
<glyph unicode="r" horiz-adv-x="858" d="M258 0v1155h229l19 -143q45 88 111.5 127t175.5 39h63v-234h-68q-137 0 -205.5 -55t-68.5 -193v-696h-256z" />
<glyph unicode="s" horiz-adv-x="1124" d="M125 94l88 199q170 -121 338 -121q88 0 129 33t41 106q0 47 -40 85t-74 52.5t-126 47.5q-18 6 -26 10q-66 29 -108 51.5t-90 62t-71.5 99t-23.5 135.5q0 158 112.5 241t298.5 83q205 0 363 -78l-62 -199q-129 80 -278 80q-188 0 -188 -115q0 -18 5 -34.5t19 -31 t26.5 -24.5t38 -22.5t41.5 -18.5l48 -19q33 -13 49 -20q74 -27 120 -49t102 -64t85 -106.5t29 -148.5q0 -178 -110.5 -265.5t-309.5 -87.5q-233 0 -426 119z" />
<glyph unicode="t" horiz-adv-x="727" d="M18 928v211h158v309h252v-309h217v-211h-217v-596q0 -84 25.5 -106.5t130.5 -22.5h61v-205q-96 -10 -168 -10q-190 0 -247.5 73.5t-57.5 274.5v592h-154z" />
<glyph unicode="u" horiz-adv-x="1388" d="M233 418v737h256v-663q0 -78 4.5 -122t20.5 -91.5t53 -68t97 -20.5q115 0 159.5 66t44.5 203v696h256v-1155h-231l-12 121h-7q-104 -150 -301 -150q-180 0 -260 104.5t-80 342.5z" />
<glyph unicode="v" horiz-adv-x="1103" d="M51 1155h273l227 -946h8l223 946h262l-333 -1155h-318z" />
<glyph unicode="w" horiz-adv-x="1810" d="M135 1155h264l160 -893h6l223 893h230l223 -893h8l162 893h260l-272 -1155h-289l-205 762h-8l-205 -762h-289z" />
<glyph unicode="x" horiz-adv-x="1333" d="M162 0l342 604l-307 551h286l189 -399h6l188 399h267l-312 -545l342 -610h-284l-220 444h-4l-213 -444h-280z" />
<glyph unicode="y" horiz-adv-x="1167" d="M152 1155h274l233 -891h5l229 891h266l-377 -1202q-76 -223 -154.5 -313.5t-238.5 -90.5q-76 0 -156 11v217q106 -8 109 -8q70 0 102.5 27.5t61.5 117.5l24 78z" />
<glyph unicode="z" horiz-adv-x="1220" d="M252 0v184l475 762h-463v209h746v-203l-461 -743h475v-209h-772z" />
<glyph unicode="{" horiz-adv-x="641" d="M37 586v180q63 16 83.5 58t20.5 122v408q0 166 63.5 228.5t219.5 62.5h117v-162h-47q-82 0 -102.5 -33t-20.5 -143v-402q0 -86 -21.5 -132t-85.5 -97q63 -47 85 -93t22 -134v-381q0 -109 20.5 -141.5t102.5 -32.5h47v-160h-117q-156 0 -219.5 62.5t-63.5 228.5v383 q0 80 -20.5 121t-83.5 57z" />
<glyph unicode="|" horiz-adv-x="743" d="M260 -467v1950h182v-1950h-182z" />
<glyph unicode="}" horiz-adv-x="632" d="M90 1483v162h121q152 0 215 -62.5t63 -228.5v-408q0 -78 21.5 -122t81.5 -58v-180q-63 -16 -83 -57.5t-20 -120.5v-383q0 -166 -63.5 -228.5t-216.5 -62.5h-119v160h47q82 0 103.5 32.5t21.5 141.5v381q0 86 21.5 132t83.5 95q-63 55 -84 100t-21 129v402 q0 111 -20.5 143.5t-104.5 32.5h-47z" />
<glyph unicode="~" horiz-adv-x="1232" d="M154 1229q45 90 105 132t159 42q84 0 200.5 -45t180.5 -45q86 0 133 90l151 -125q-35 -86 -105.5 -131t-160.5 -45q-82 0 -199 45q-115 45 -184 45q-47 0 -74.5 -18.5t-58.5 -73.5z" />
<glyph unicode="&#xa1;" horiz-adv-x="681" d="M182 948.5q0 61.5 43 100t107 38.5q70 0 113.5 -37.5t43.5 -101t-44 -102.5t-113 -39q-63 0 -106.5 40t-43.5 101.5zM233 -350v999h242v-999h-242z" />
<glyph unicode="&#xa2;" horiz-adv-x="935" d="M55 715q0 215 89 357t270 177v166h219v-160q129 -23 246 -104l-101 -190q-115 98 -227 98q-129 0 -182.5 -99.5t-53.5 -244.5q0 -152 58.5 -251t181.5 -99q129 0 250 104l92 -178q-127 -102 -264 -125v-166h-219v172q-178 35 -268.5 183.5t-90.5 359.5z" />
<glyph unicode="&#xa3;" horiz-adv-x="1179" d="M135 203h21q150 0 149 215q0 70 -22 239h-142v201h117q-2 29 -9 79t-11.5 92t-4.5 83q0 162 98.5 244t280.5 82q180 0 344 -82l-49 -219q-123 84 -248 84q-92 0 -132 -41t-40 -125q0 -18 21 -197h274v-201h-245q31 -156 30 -254q0 -115 -39 -180v-2h451v-221h-844v203z " />
<glyph unicode="&#xa4;" horiz-adv-x="1320" d="M41 473l43 145h113q0 16 -2 46t-2 47v39q0 12 4 41h-136l41 145h109q39 231 168 366.5t362 135.5q244 0 439 -209l-156 -164q-125 158 -287 158q-117 0 -179 -71t-87 -216h473l-43 -145h-444v-80v-93h430l-41 -145h-371q23 -133 82 -208t180 -75q168 0 316 160l133 -170 q-193 -205 -449 -205q-444 0 -526 498h-170z" />
<glyph unicode="&#xa5;" horiz-adv-x="1202" d="M49 1415h279l276 -639l275 639h266l-283 -590h213v-172h-297l-45 -92v-125h342v-170h-342v-266h-260v266h-344v170h344v115l-49 102h-295v172h207z" />
<glyph unicode="&#xa6;" horiz-adv-x="608" d="M260 350h182v-817h-182v817zM260 666v817h182v-817h-182z" />
<glyph unicode="&#xa7;" horiz-adv-x="1091" d="M158 610q0 106 60.5 170t172.5 74v8q-219 82 -219 273q0 143 98.5 223t274.5 80q170 0 342 -76l-64 -199q-133 78 -248 78q-141 0 -141 -100q0 -39 26.5 -68t96.5 -65l203 -86q164 -80 164 -260q0 -227 -228 -259v-4q100 -39 162 -114.5t62 -175.5q0 -145 -91.5 -226.5 t-281.5 -81.5q-203 0 -385 119l78 186q170 -115 305 -114q137 0 137 106q0 47 -32 78t-115 74l-179 82q-102 61 -150 120.5t-48 157.5zM373 618q0 -125 170 -124q166 0 166 124q0 129 -166 130q-170 -1 -170 -130z" />
<glyph unicode="&#xa8;" horiz-adv-x="1159" d="M209 1442q0 55 39 95t96 40q55 0 94 -40t39 -95q0 -57 -39 -96t-94 -39q-57 0 -96 39t-39 96zM672 1441.5q0 55.5 39 95.5t96 40t95 -40t38 -95q0 -57 -38 -96t-95 -39t-96 39.5t-39 95z" />
<glyph unicode="&#xa9;" horiz-adv-x="1712" d="M123 709q0 303 214 516t519 213q301 0 516 -214t215 -515q0 -303 -215 -518.5t-516 -215.5q-305 0 -519 214.5t-214 519.5zM221 711q0 -264 185.5 -449.5t449.5 -185.5q266 0 452.5 184t186.5 451q0 264 -186.5 450.5t-452.5 186.5q-262 0 -448.5 -187.5t-186.5 -449.5z M453 713q0 207 110.5 328.5t306.5 121.5q188 0 328 -133l-104 -125q-94 102 -215 103q-242 0 -242 -297q0 -303 242 -303q117 0 237 102l86 -127q-145 -131 -328 -131q-209 0 -315 127t-106 334z" />
<glyph unicode="&#xaa;" horiz-adv-x="911" d="M160 979q0 236 405 235v17q0 51 -17.5 69.5t-82.5 18.5q-129 0 -238 -70l-53 123q150 78 303 78q143 0 197.5 -58.5t54.5 -193.5v-229q0 -33 8 -45.5t43 -38.5l-100 -101q-78 18 -96 72h-4q-100 -74 -215 -74q-92 0 -148.5 53.5t-56.5 143.5zM322 989q0 -45 23.5 -70.5 t62.5 -25.5q63 0 157 61v160q-243 -2 -243 -125z" />
<glyph unicode="&#xab;" horiz-adv-x="1116" d="M82 639l235 424l181 -90l-191 -336l191 -332l-181 -92zM528 639l236 424l176 -90l-184 -336l184 -332l-176 -92z" />
<glyph unicode="&#xad;" horiz-adv-x="1026" d="M260 500v245h492v-245h-492z" />
<glyph unicode="&#xae;" horiz-adv-x="991" d="M125 1126.5q0 149.5 107.5 253t261 103.5t260 -103.5t106.5 -253t-107.5 -255t-258.5 -105.5q-154 0 -261.5 105.5t-107.5 255zM180 1126q0 -127 92.5 -215t221.5 -88t220 88t91 215q0 125 -92 214.5t-219 89.5q-129 0 -221.5 -89.5t-92.5 -214.5zM344 930v397 q147 6 150 6q170 0 170 -129q0 -70 -62 -104q6 -10 25.5 -52l36.5 -81l14 -37h-111l-55 135q-2 10 -14 10h-58v-145h-96zM440 1149h62q66 0 65 51q0 29 -16 41t-57 12h-54v-104z" />
<glyph unicode="&#xaf;" horiz-adv-x="1140" d="M260 1356v178h608v-178h-608z" />
<glyph unicode="&#x2c9;" horiz-adv-x="1140" d="M260 1356v178h608v-178h-608z" />
<glyph unicode="&#xb0;" horiz-adv-x="913" d="M123 1126.5q0 137.5 96 233.5t234 96q135 0 233 -97t98 -233q0 -137 -98 -234t-233 -97q-137 0 -233.5 97t-96.5 234.5zM217 1126q0 -96 69.5 -166.5t166.5 -70.5q98 0 166.5 69.5t68.5 167.5q0 94 -69.5 165t-166 71t-166 -71t-69.5 -165z" />
<glyph unicode="&#xb1;" horiz-adv-x="1081" d="M80 608v226h340v333h235v-333h338v-226h-338v-295h-235v295h-340zM82 0v209h911v-209h-911z" />
<glyph unicode="&#xb2;" horiz-adv-x="929" d="M152 1450q141 123 297 123q127 0 197.5 -64.5t70.5 -185.5q0 -104 -80 -215t-260 -252h342v-156h-533l-26 154l90 86l100 96q39 39 84 90.5t67.5 95.5t22.5 83q0 106 -108 106q-94 0 -176 -88z" />
<glyph unicode="&#xb3;" horiz-adv-x="868" d="M131 770l74 135q92 -68 192 -67q57 0 93 29.5t36 88.5q0 117 -129 117h-102v144h72q135 0 135 108q0 98 -115 98q-86 0 -170 -65l-74 129q141 88 275 88q125 0 197.5 -60.5t72.5 -173.5q0 -119 -96 -182q119 -45 119 -207q0 -119 -83 -191.5t-222 -72.5q-144 0 -275 82z " />
<glyph unicode="&#xb4;" horiz-adv-x="495" d="M14 1376l269 250l213 -121l-342 -209z" />
<glyph unicode="&#xb5;" horiz-adv-x="1193" d="M260 -477h240v516q39 -68 153 -68q80 0 135.5 34t112.5 116h6l13 -121h231v1155h-256v-696q0 -137 -45 -203t-160 -66q-139 0 -166 142q-8 49 -8 160v663h-256v-1632z" />
<glyph unicode="&#x3bc;" horiz-adv-x="1193" d="M260 -477h240v516q39 -68 153 -68q80 0 135.5 34t112.5 116h6l13 -121h231v1155h-256v-696q0 -137 -45 -203t-160 -66q-139 0 -166 142q-8 49 -8 160v663h-256v-1632z" />
<glyph unicode="&#xb6;" horiz-adv-x="1118" d="M86 535q0 231 156.5 379.5t443.5 148.5h162v-1063h-162q-287 0 -443.5 149.5t-156.5 385.5z" />
<glyph unicode="&#xb7;" horiz-adv-x="604" d="M127 577.5q0 69.5 49 118.5t119 49q74 0 122 -48t48 -119q0 -70 -49 -120t-121 -50q-70 0 -119 50t-49 119.5z" />
<glyph unicode="&#x2219;" horiz-adv-x="604" d="M127 577.5q0 69.5 49 118.5t119 49q74 0 122 -48t48 -119q0 -70 -49 -120t-121 -50q-70 0 -119 50t-49 119.5z" />
<glyph unicode="&#xb8;" horiz-adv-x="843" d="M219 -436l45 100q72 -43 133 -43q37 0 60.5 23.5t23.5 64.5q0 37 -21.5 62.5t-62.5 25.5q-33 0 -71 -14l-66 47l86 170h103l-56 -113l4 -2q57 8 62 9q74 0 113.5 -47.5t39.5 -133.5q0 -90 -52 -146t-146 -56q-109 0 -195 53z" />
<glyph unicode="&#xb9;" horiz-adv-x="679" d="M0 1364l258 197h143v-861h-186v629l-137 -94z" />
<glyph unicode="&#xba;" horiz-adv-x="886" d="M145 1126q0 154 75 243t220 89q141 0 216 -89t75 -247q0 -156 -75.5 -245t-219.5 -89q-141 0 -216 91t-75 247zM313 1122q0 -201 125 -200q70 0 97.5 49t27.5 151q0 96 -26.5 148.5t-98.5 52.5q-74 0 -99.5 -52.5t-25.5 -148.5z" />
<glyph unicode="&#xbb;" horiz-adv-x="1120" d="M170 305l188 332l-188 336l180 90l234 -424l-234 -422zM618 305l185 332l-185 336l181 90l233 -424l-233 -422z" />
<glyph unicode="&#xbc;" horiz-adv-x="2072" d="M156 1364l258 197h143v-861h-184v629l-137 -94zM358 -82l1123 1643h168l-1121 -1643h-170zM1276 242l326 538h213v-530h108v-160h-108v-172h-187v172h-315zM1442 242h205v364z" />
<glyph unicode="&#xbd;" horiz-adv-x="1998" d="M113 1364l258 197h143v-861h-184v629l-137 -94zM315 -82l1123 1643h168l-1121 -1643h-170zM1305 670q145 123 299 123q127 0 197.5 -64.5t70.5 -185.5q0 -104 -80 -215t-260 -252h342v-158h-533l-26 154l89 85q62 58 101 98t84 91t67.5 95t22.5 83q0 104 -106 105 q-90 0 -178 -88z" />
<glyph unicode="&#xbe;" horiz-adv-x="1947" d="M98 770l76 135q90 -68 191 -67q129 0 129 118q0 117 -129 117h-103v144h72q133 0 133 108q0 98 -113 98q-90 0 -170 -65l-73 129q131 88 274 88q123 0 195.5 -61.5t72.5 -172.5q0 -123 -96 -182q119 -45 119 -207q0 -119 -81 -191.5t-222 -72.5q-144 0 -275 82zM360 -82 l1123 1643h168l-1121 -1643h-170zM1163 242l328 538h211v-530h108v-160h-108v-172h-189v172h-311zM1329 242h205v364z" />
<glyph unicode="&#xbf;" horiz-adv-x="901" d="M27 20q0 137 48 215t161 148l88 55q45 29 53 48.5t8 86.5v105h238v-158q0 -94 -21.5 -136t-93.5 -83l-82 -47q-82 -45 -114.5 -88t-32.5 -125q0 -197 192 -197q141 0 266 113l101 -197q-193 -131 -404 -131q-197 0 -302 103.5t-105 287.5zM356 950.5q0 61.5 44 100.5 t108 39q68 0 112 -39t44 -100.5t-44.5 -101.5t-111.5 -40q-63 0 -107.5 40t-44.5 101.5z" />
<glyph unicode="&#xc0;" horiz-adv-x="1306" d="M47 0l447 1419h311l455 -1419h-285l-94 322h-459l-98 -322h-277zM412 1780l215 121l266 -250l-139 -80zM469 543h360l-178 631h-10z" />
<glyph unicode="&#xc1;" horiz-adv-x="1306" d="M47 0l447 1419h311l455 -1419h-285l-94 322h-459l-98 -322h-277zM412 1651l268 250l213 -121l-342 -209zM469 543h360l-178 631h-10z" />
<glyph unicode="&#xc2;" horiz-adv-x="1306" d="M47 0l447 1419h311l455 -1419h-285l-94 322h-459l-98 -322h-277zM324 1700l329 186l330 -186l-84 -139l-242 137l-247 -137zM469 543h360l-178 631h-10z" />
<glyph unicode="&#xc3;" horiz-adv-x="1306" d="M47 0l447 1419h311l455 -1419h-285l-94 322h-459l-98 -322h-277zM287 1671q37 92 87 133t130 41q59 0 150 -41t130 -41q84 0 117 86l117 -88q-29 -78 -88.5 -125t-130.5 -47q-59 0 -149.5 41t-129.5 41q-84 0 -119 -86zM469 543h360l-178 631h-10z" />
<glyph unicode="&#xc4;" horiz-adv-x="1306" d="M47 0l447 1419h311l455 -1419h-285l-94 322h-459l-98 -322h-277zM287 1716q0 55 39 95t96 40q55 0 94 -39.5t39 -95.5q0 -57 -39 -96t-94 -39q-57 0 -96 39t-39 96zM469 543h360l-178 631h-10zM750 1716.5q0 55.5 38.5 95t96 39.5t95.5 -39.5t38 -95.5q0 -57 -38 -96 t-95.5 -39t-96 40t-38.5 95.5z" />
<glyph unicode="&#xc5;" horiz-adv-x="1306" d="M47 0l447 1419h311l455 -1419h-285l-94 322h-459l-98 -322h-277zM465 1735q0 80 54 134t134 54q78 0 132.5 -54t54.5 -134t-54.5 -134.5t-132.5 -54.5q-80 0 -134 54.5t-54 134.5zM469 543h360l-178 631h-10zM555 1735q0 -41 28.5 -70t69.5 -29q39 0 68 29t29 70 t-29 68.5t-68 27.5q-41 0 -69.5 -27.5t-28.5 -68.5z" />
<glyph unicode="&#xc6;" horiz-adv-x="1996" d="M45 0l635 1415h1055v-225h-525v-344h473v-225h-473v-404h545v-217h-805v322h-491l-137 -322h-277zM535 543h415v645h-133z" />
<glyph unicode="&#xc7;" horiz-adv-x="1503" d="M225 711q0 201 59.5 360.5t198 263t338.5 103.5q246 0 443 -209l-160 -180q-131 166 -283 165q-162 0 -241.5 -134t-79.5 -369q0 -100 15 -185.5t50 -162t101.5 -120.5t158.5 -44q88 0 159 40t151 126l137 -183q-195 -207 -455 -207q-205 0 -341 99.5t-193.5 260.5 t-57.5 376zM555 -436l45 100q72 -43 133 -43q37 0 60.5 23.5t23.5 64.5q0 37 -21.5 62.5t-62.5 25.5q-33 0 -71 -14l-66 47l86 170h102l-55 -113l4 -2q57 8 62 9q74 0 113.5 -47.5t39.5 -133.5q0 -90 -52 -146t-146 -56q-109 0 -195 53z" />
<glyph unicode="&#xc8;" horiz-adv-x="1290" d="M260 0v1415h787v-225h-527v-344h475v-225h-475v-404h545v-217h-805zM403 1780l215 121l267 -250l-140 -80z" />
<glyph unicode="&#xc9;" horiz-adv-x="1290" d="M260 0v1415h787v-225h-527v-344h475v-225h-475v-404h545v-217h-805zM403 1651l269 250l213 -121l-342 -209z" />
<glyph unicode="&#xca;" horiz-adv-x="1290" d="M260 0v1415h787v-225h-527v-344h475v-225h-475v-404h545v-217h-805zM315 1700l330 186l330 -186l-84 -139l-242 137l-248 -137z" />
<glyph unicode="&#xcb;" horiz-adv-x="1290" d="M260 0v1415h787v-225h-527v-344h475v-225h-475v-404h545v-217h-805zM279 1716q0 55 38.5 95t96.5 40q55 0 94 -39.5t39 -95.5q0 -57 -39 -96t-94 -39q-57 0 -96 39t-39 96zM741 1716.5q0 55.5 39 95t96.5 39.5t95.5 -39.5t38 -95.5q0 -57 -38 -96t-95.5 -39t-96.5 40 t-39 95.5z" />
<glyph unicode="&#xcc;" horiz-adv-x="808" d="M164 1780l215 121l266 -250l-139 -80zM260 0v1415h260v-1415h-260z" />
<glyph unicode="&#xcd;" horiz-adv-x="808" d="M164 1651l268 250l213 -121l-342 -209zM260 0v1415h260v-1415h-260z" />
<glyph unicode="&#xce;" horiz-adv-x="808" d="M74 1700l329 186l330 -186l-84 -139l-241 137l-248 -137zM260 0v1415h260v-1415h-260z" />
<glyph unicode="&#xcf;" horiz-adv-x="808" d="M39 1716q0 55 39 95t96 40q55 0 94 -39.5t39 -95.5q0 -57 -39 -96t-94 -39q-57 0 -96 39t-39 96zM260 0v1415h260v-1415h-260zM502 1716.5q0 55.5 39 95t96 39.5t95 -39.5t38 -95.5q0 -57 -38 -96t-95 -39t-96 40t-39 95.5z" />
<glyph unicode="&#xd0;" horiz-adv-x="1441" d="M123 621v225h131v559q178 25 420 25q301 0 461.5 -187.5t160.5 -527.5q0 -342 -158.5 -528.5t-478.5 -186.5h-405v621h-131zM514 621v-408q111 -4 137 -4q190 0 280.5 122t90.5 390q0 500 -338 500q-113 0 -170 -9v-366h238v-225h-238z" />
<glyph unicode="&#xd1;" horiz-adv-x="1591" d="M260 0v1415h254l555 -909h4v909h252v-1415h-233l-576 922h-4v-922h-252zM430 1671q37 92 87 133t130 41q59 0 150.5 -41t130.5 -41q84 0 116 86l117 -88q-29 -78 -88 -125t-131 -47q-59 0 -149.5 41t-128.5 41q-84 0 -119 -86z" />
<glyph unicode="&#xd2;" horiz-adv-x="1497" d="M143 709q0 338 154 533.5t451 195.5q293 0 447.5 -197t154.5 -532q0 -340 -155 -537t-447.5 -197t-448.5 197t-156 537zM418 709q0 -248 72.5 -381t259.5 -133q180 0 252.5 135t72.5 379q0 246 -73.5 379t-258.5 133q-125 0 -198.5 -69t-100 -176t-26.5 -267zM508 1780 l215 121l266 -250l-139 -80z" />
<glyph unicode="&#xd3;" horiz-adv-x="1497" d="M143 709q0 338 154 533.5t451 195.5q293 0 447.5 -197t154.5 -532q0 -340 -155 -537t-447.5 -197t-448.5 197t-156 537zM418 709q0 -248 72.5 -381t259.5 -133q180 0 252.5 135t72.5 379q0 246 -73.5 379t-258.5 133q-125 0 -198.5 -69t-100 -176t-26.5 -267zM508 1651 l268 250l213 -121l-342 -209z" />
<glyph unicode="&#xd4;" horiz-adv-x="1497" d="M143 709q0 338 154 533.5t451 195.5q293 0 447.5 -197t154.5 -532q0 -340 -155 -537t-447.5 -197t-448.5 197t-156 537zM418 709q0 -248 72.5 -381t259.5 -133q180 0 252.5 135t72.5 379q0 246 -73.5 379t-258.5 133q-125 0 -198.5 -69t-100 -176t-26.5 -267zM418 1700 l330 186l329 -186l-84 -139l-241 137l-248 -137z" />
<glyph unicode="&#xd5;" horiz-adv-x="1497" d="M143 709q0 338 154 533.5t451 195.5q293 0 447.5 -197t154.5 -532q0 -340 -155 -537t-447.5 -197t-448.5 197t-156 537zM383 1671q37 92 87 133t130 41q59 0 150.5 -41t130.5 -41q84 0 116 86l117 -88q-29 -78 -88 -125t-131 -47q-59 0 -149.5 41t-129.5 41 q-84 0 -118 -86zM418 709q0 -248 72.5 -381t259.5 -133q180 0 252.5 135t72.5 379q0 246 -73.5 379t-258.5 133q-125 0 -198.5 -69t-100 -176t-26.5 -267z" />
<glyph unicode="&#xd6;" horiz-adv-x="1497" d="M143 709q0 338 154 533.5t451 195.5q293 0 447.5 -197t154.5 -532q0 -340 -155 -537t-447.5 -197t-448.5 197t-156 537zM383 1716q0 55 39 95t96 40q55 0 94 -39.5t39 -95.5q0 -57 -39 -96t-94 -39q-57 0 -96 39t-39 96zM418 709q0 -248 72.5 -381t259.5 -133 q180 0 252.5 135t72.5 379q0 246 -73.5 379t-258.5 133q-125 0 -198.5 -69t-100 -176t-26.5 -267zM846 1716.5q0 55.5 39 95t96 39.5t95 -39.5t38 -95.5q0 -57 -38 -96t-95 -39t-96 40t-39 95.5z" />
<glyph unicode="&#xd7;" horiz-adv-x="1099" d="M133 311l260 256l-260 254l160 158l256 -258l252 258l160 -158l-259 -254l259 -256l-160 -157l-252 258l-256 -258z" />
<glyph unicode="&#xd8;" horiz-adv-x="1497" d="M143 709q0 338 154 533.5t451 195.5q293 0 447.5 -197t154.5 -532q0 -340 -155 -537t-447.5 -197t-448.5 197t-156 537zM295 -244l684 1727h221l-682 -1727h-223zM418 709q0 -248 72.5 -381t259.5 -133q180 0 252.5 135t72.5 379q0 246 -73.5 379t-258.5 133 q-125 0 -198.5 -69t-100 -176t-26.5 -267z" />
<glyph unicode="&#xd9;" horiz-adv-x="1445" d="M219 573v842h260v-848q0 -184 49.5 -276t190.5 -92q143 0 192.5 92t49.5 276v848h262v-842q0 -299 -114 -448.5t-390.5 -149.5t-388 148.5t-111.5 449.5zM481 1780l215 121l267 -250l-140 -80z" />
<glyph unicode="&#xda;" horiz-adv-x="1445" d="M219 573v842h260v-848q0 -184 49.5 -276t190.5 -92q143 0 192.5 92t49.5 276v848h262v-842q0 -299 -114 -448.5t-390.5 -149.5t-388 148.5t-111.5 449.5zM481 1651l269 250l213 -121l-342 -209z" />
<glyph unicode="&#xdb;" horiz-adv-x="1445" d="M219 573v842h260v-848q0 -184 49.5 -276t190.5 -92q143 0 192.5 92t49.5 276v848h262v-842q0 -299 -114 -448.5t-390.5 -149.5t-388 148.5t-111.5 449.5zM393 1700l330 186l330 -186l-84 -139l-242 137l-248 -137z" />
<glyph unicode="&#xdc;" horiz-adv-x="1445" d="M219 573v842h260v-848q0 -184 49.5 -276t190.5 -92q143 0 192.5 92t49.5 276v848h262v-842q0 -299 -114 -448.5t-390.5 -149.5t-388 148.5t-111.5 449.5zM356 1716q0 55 39 95t97 40q55 0 94 -39.5t39 -95.5q0 -57 -39 -96t-94 -39q-57 0 -96.5 39t-39.5 96zM819 1716.5 q0 55.5 39 95t96.5 39.5t95 -39.5t37.5 -95.5q0 -57 -37.5 -96t-95 -39t-96.5 40t-39 95.5z" />
<glyph unicode="&#xdd;" horiz-adv-x="1167" d="M23 1415h288l277 -641l276 641h279l-426 -866v-549h-262v539zM342 1651l268 250l213 -121l-342 -209z" />
<glyph unicode="&#xde;" horiz-adv-x="1206" d="M260 0v1415h256v-188q18 0 82 4t92 4q516 0 516 -459q0 -221 -115.5 -340t-351.5 -119h-219v-317h-260zM520 530h185q127 0 184 51.5t57 196.5q0 133 -54 186.5t-190 53.5q-123 0 -182 -6v-482z" />
<glyph unicode="&#xdf;" horiz-adv-x="1267" d="M88 930v209h145v28q0 205 94.5 295t297.5 90q377 0 376 -340q0 -113 -45 -192.5t-127 -153.5v-4q170 -82 248 -187.5t78 -268.5q0 -406 -418 -406h-104v199q127 0 191.5 42t64.5 167q0 143 -96 215q-94 74 -189 98l-22 153q82 82 131 146q55 70 55 176q0 88 -34 128 t-107.5 40t-105.5 -42t-32 -144v-1178h-256v930h-145z" />
<glyph unicode="&#xe0;" horiz-adv-x="1259" d="M150 326q0 123 58 211t158.5 131t205 61.5t225.5 18.5v40q0 100 -32 146.5t-124 46.5q-186 0 -375 -107l-71 189q233 115 458 115q221 0 309.5 -101.5t88.5 -314.5v-488q0 -68 13 -96t56 -57l-157 -137q-119 29 -144 133h-4q-152 -141 -344 -142q-152 0 -236.5 95.5 t-84.5 255.5zM389 1505l215 121l266 -250l-139 -80zM399 336q0 -82 37 -132t113 -50q131 0 246 108v326q-396 0 -396 -252z" />
<glyph unicode="&#xe1;" horiz-adv-x="1259" d="M150 326q0 123 58 211t158.5 131t205 61.5t225.5 18.5v40q0 100 -32 146.5t-124 46.5q-186 0 -375 -107l-71 189q233 115 458 115q221 0 309.5 -101.5t88.5 -314.5v-488q0 -68 13 -96t56 -57l-157 -137q-119 29 -144 133h-4q-152 -141 -344 -142q-152 0 -236.5 95.5 t-84.5 255.5zM389 1376l268 250l213 -121l-342 -209zM399 336q0 -82 37 -132t113 -50q131 0 246 108v326q-396 0 -396 -252z" />
<glyph unicode="&#xe2;" horiz-adv-x="1259" d="M150 326q0 123 58 211t158.5 131t205 61.5t225.5 18.5v40q0 100 -32 146.5t-124 46.5q-186 0 -375 -107l-71 189q233 115 458 115q221 0 309.5 -101.5t88.5 -314.5v-488q0 -68 13 -96t56 -57l-157 -137q-119 29 -144 133h-4q-152 -141 -344 -142q-152 0 -236.5 95.5 t-84.5 255.5zM299 1425l330 187l329 -187l-84 -139l-241 137l-248 -137zM399 336q0 -82 37 -132t113 -50q131 0 246 108v326q-396 0 -396 -252z" />
<glyph unicode="&#xe3;" horiz-adv-x="1259" d="M150 326q0 123 58 211t158.5 131t205 61.5t225.5 18.5v40q0 100 -32 146.5t-124 46.5q-186 0 -375 -107l-71 189q233 115 458 115q221 0 309.5 -101.5t88.5 -314.5v-488q0 -68 13 -96t56 -57l-157 -137q-119 29 -144 133h-4q-152 -141 -344 -142q-152 0 -236.5 95.5 t-84.5 255.5zM264 1397q37 92 87 133t130 41q59 0 150.5 -41t130.5 -41q84 0 117 86l116 -88q-29 -78 -88 -125t-131 -47q-59 0 -149 41t-129 41q-84 0 -119 -86zM399 336q0 -82 37 -132t113 -50q131 0 246 108v326q-396 0 -396 -252z" />
<glyph unicode="&#xe4;" horiz-adv-x="1259" d="M150 326q0 123 58 211t158.5 131t205 61.5t225.5 18.5v40q0 100 -32 146.5t-124 46.5q-186 0 -375 -107l-71 189q233 115 458 115q221 0 309.5 -101.5t88.5 -314.5v-488q0 -68 13 -96t56 -57l-157 -137q-119 29 -144 133h-4q-152 -141 -344 -142q-152 0 -236.5 95.5 t-84.5 255.5zM264 1442q0 55 39 95t96 40q55 0 94 -40t39 -95q0 -57 -38.5 -96t-94.5 -39q-57 0 -96 39t-39 96zM399 336q0 -82 37 -132t113 -50q131 0 246 108v326q-396 0 -396 -252zM727 1441.5q0 55.5 39 95.5t96.5 40t95 -40t37.5 -95q0 -57 -37.5 -96t-95 -39 t-96.5 39.5t-39 95z" />
<glyph unicode="&#xe5;" horiz-adv-x="1259" d="M150 326q0 123 58 211t158.5 131t205 61.5t225.5 18.5v40q0 100 -32 146.5t-124 46.5q-186 0 -375 -107l-71 189q233 115 458 115q221 0 309.5 -101.5t88.5 -314.5v-488q0 -68 13 -96t56 -57l-157 -137q-119 29 -144 133h-4q-152 -141 -344 -142q-152 0 -236.5 95.5 t-84.5 255.5zM399 336q0 -82 37 -132t113 -50q131 0 246 108v326q-396 0 -396 -252zM442 1460q0 80 54.5 134.5t134.5 54.5q78 0 132 -54.5t54 -134.5t-54 -134t-132 -54q-80 0 -134.5 54t-54.5 134zM532 1460q0 -41 29 -69.5t70 -28.5q39 0 67.5 28.5t28.5 69.5t-28.5 68.5 t-67.5 27.5q-41 0 -70 -27.5t-29 -68.5z" />
<glyph unicode="&#xe6;" horiz-adv-x="1990" d="M193 326q0 219 177 322.5t470 103.5v32q0 53 -3 81t-18.5 57.5t-47.5 41t-87 11.5q-166 0 -379 -109l-69 197q229 119 462 119q229 0 320 -127q123 127 328 127q221 0 345 -151.5t124 -452.5q0 -18 -5 -89h-708q4 -309 270 -309q143 0 295 101l78 -191 q-176 -115 -383 -115q-270 0 -399 187q-160 -186 -420 -187q-172 0 -261 93.5t-89 257.5zM442 336q0 -84 39 -134t109 -50q123 0 248 112v322q-396 0 -396 -250zM1100 672h475q-8 147 -58.5 230t-170.5 83q-115 0 -179.5 -78.5t-66.5 -234.5z" />
<glyph unicode="&#xe7;" horiz-adv-x="1161" d="M127 578q0 262 130 431t386 169q188 0 356 -123l-102 -185q-115 104 -248 105q-76 0 -131 -36t-81.5 -97.5t-38 -124t-11.5 -135.5q0 -76 12.5 -141.5t40 -128t83 -98.5t130.5 -36q137 0 271 105l80 -189q-174 -119 -375 -119q-254 0 -378 168.5t-124 434.5zM383 -436 l45 100q72 -43 133 -43q37 0 60.5 23.5t23.5 64.5q0 37 -21.5 62.5t-62.5 25.5q-33 0 -72 -14l-65 47l86 170h102l-55 -113l4 -2q57 8 62 9q74 0 113.5 -47.5t39.5 -133.5q0 -90 -52 -146t-146 -56q-109 0 -195 53z" />
<glyph unicode="&#xe8;" horiz-adv-x="1234" d="M137 578q0 293 137.5 446.5t368.5 153.5q225 0 342 -152t117 -442q0 -20 -4 -90h-701q0 -319 269 -320q147 0 297 100l73 -188q-170 -111 -385 -111q-246 0 -380 160t-134 443zM377 1505l215 121l266 -250l-139 -80zM395 666h467q0 319 -219 319q-117 0 -182.5 -82.5 t-65.5 -236.5z" />
<glyph unicode="&#xe9;" horiz-adv-x="1234" d="M137 578q0 293 137.5 446.5t368.5 153.5q225 0 342 -152t117 -442q0 -20 -4 -90h-701q0 -319 269 -320q147 0 297 100l73 -188q-170 -111 -385 -111q-246 0 -380 160t-134 443zM377 1376l268 250l213 -121l-342 -209zM395 666h467q0 319 -219 319q-117 0 -182.5 -82.5 t-65.5 -236.5z" />
<glyph unicode="&#xea;" horiz-adv-x="1234" d="M137 578q0 293 137.5 446.5t368.5 153.5q225 0 342 -152t117 -442q0 -20 -4 -90h-701q0 -319 269 -320q147 0 297 100l73 -188q-170 -111 -385 -111q-246 0 -380 160t-134 443zM287 1425l329 187l330 -187l-84 -139l-241 137l-248 -137zM395 666h467q0 319 -219 319 q-117 0 -182.5 -82.5t-65.5 -236.5z" />
<glyph unicode="&#xeb;" horiz-adv-x="1234" d="M137 578q0 293 137.5 446.5t368.5 153.5q225 0 342 -152t117 -442q0 -20 -4 -90h-701q0 -319 269 -320q147 0 297 100l73 -188q-170 -111 -385 -111q-246 0 -380 160t-134 443zM252 1442q0 55 39 95t96 40q55 0 94 -40t39 -95q0 -57 -39 -96t-94 -39q-57 0 -96 39t-39 96 zM395 666h467q0 319 -219 319q-117 0 -182.5 -82.5t-65.5 -236.5zM715 1441.5q0 55.5 39 95.5t96 40t95 -40t38 -95q0 -57 -38 -96t-95 -39t-96 39.5t-39 95z" />
<glyph unicode="&#xec;" horiz-adv-x="804" d="M162 1505l215 121l266 -250l-139 -80zM260 0v1155h256v-1155h-256z" />
<glyph unicode="&#xed;" horiz-adv-x="804" d="M162 1376l268 250l213 -121l-342 -209zM260 0v1155h256v-1155h-256z" />
<glyph unicode="&#xee;" horiz-adv-x="804" d="M72 1425l329 187l330 -187l-84 -139l-241 137l-248 -137zM260 0v1155h256v-1155h-256z" />
<glyph unicode="&#xef;" horiz-adv-x="804" d="M37 1442q0 55 39 95t96 40q55 0 94 -40t39 -95q0 -57 -39 -96t-94 -39q-57 0 -96 39t-39 96zM260 0v1155h256v-1155h-256zM500 1441.5q0 55.5 39 95.5t96 40t95 -40t38 -95q0 -57 -38 -96t-95 -39t-96 39.5t-39 95z" />
<glyph unicode="&#xf0;" horiz-adv-x="1206" d="M39 578q0 270 124 435t345 165q160 0 237 -109l9 6q-10 33 -99 232l-112 -62l-68 141l113 56q-63 123 -66 125l176 78l31 -61l31 -60l170 90l69 -144l-168 -84q109 -203 163.5 -391t54.5 -417q0 -281 -128 -442t-376 -161q-250 0 -378 160t-128 443zM299 578 q0 -197 53.5 -298.5t192.5 -101.5t191 101.5t52 298.5q0 86 -10 150.5t-34.5 122.5t-75 89t-123.5 31q-141 0 -193.5 -105.5t-52.5 -287.5z" />
<glyph unicode="&#xf1;" horiz-adv-x="1400" d="M260 0v1155h223l19 -123h6q88 145 301 146q203 0 279.5 -123t76.5 -371v-684h-256v657q0 63 -2 99.5t-11 81.5t-27.5 68.5t-53.5 40t-86 16.5q-213 0 -213 -263v-700h-256zM334 1397q37 92 87 133t130 41q59 0 150.5 -41t129.5 -41q84 0 117 86l117 -88q-29 -78 -88 -125 t-131 -47q-59 0 -149.5 41t-129.5 41q-84 0 -118 -86z" />
<glyph unicode="&#xf2;" d="M145 578q0 274 127 437t379 163q248 0 376 -159t128 -441q0 -281 -128 -442t-376 -161q-250 0 -378 160t-128 443zM406 578q0 -197 53 -298.5t192.5 -101.5t191.5 101.5t52 298.5q0 86 -10.5 150.5t-35 122.5t-74.5 89t-124 31q-141 0 -193 -105.5t-52 -287.5zM412 1505 l215 121l266 -250l-139 -80z" />
<glyph unicode="&#xf3;" d="M145 578q0 274 127 437t379 163q248 0 376 -159t128 -441q0 -281 -128 -442t-376 -161q-250 0 -378 160t-128 443zM406 578q0 -197 53 -298.5t192.5 -101.5t191.5 101.5t52 298.5q0 86 -10.5 150.5t-35 122.5t-74.5 89t-124 31q-141 0 -193 -105.5t-52 -287.5zM412 1376 l268 250l213 -121l-342 -209z" />
<glyph unicode="&#xf4;" d="M145 578q0 274 127 437t379 163q248 0 376 -159t128 -441q0 -281 -128 -442t-376 -161q-250 0 -378 160t-128 443zM322 1425l329 187l330 -187l-84 -139l-242 137l-247 -137zM406 578q0 -197 53 -298.5t192.5 -101.5t191.5 101.5t52 298.5q0 86 -10.5 150.5t-35 122.5 t-74.5 89t-124 31q-141 0 -193 -105.5t-52 -287.5z" />
<glyph unicode="&#xf5;" d="M145 578q0 274 127 437t379 163q248 0 376 -159t128 -441q0 -281 -128 -442t-376 -161q-250 0 -378 160t-128 443zM287 1397q37 92 87 133t130 41q59 0 150 -41t130 -41q84 0 117 86l117 -88q-29 -78 -88.5 -125t-130.5 -47q-59 0 -149.5 41t-129.5 41q-84 0 -119 -86z M406 578q0 -197 53 -298.5t192.5 -101.5t191.5 101.5t52 298.5q0 86 -10.5 150.5t-35 122.5t-74.5 89t-124 31q-141 0 -193 -105.5t-52 -287.5z" />
<glyph unicode="&#xf6;" d="M145 578q0 274 127 437t379 163q248 0 376 -159t128 -441q0 -281 -128 -442t-376 -161q-250 0 -378 160t-128 443zM287 1442q0 55 39 95t96 40q55 0 94 -40t39 -95q0 -57 -39 -96t-94 -39q-57 0 -96 39t-39 96zM406 578q0 -197 53 -298.5t192.5 -101.5t191.5 101.5 t52 298.5q0 86 -10.5 150.5t-35 122.5t-74.5 89t-124 31q-141 0 -193 -105.5t-52 -287.5zM750 1441.5q0 55.5 38.5 95.5t96 40t95.5 -40t38 -95q0 -57 -38 -96t-95.5 -39t-96 39.5t-38.5 95z" />
<glyph unicode="&#xf8;" d="M145 578q0 274 127 437t379 163q248 0 376 -159t128 -441q0 -281 -128 -442t-376 -161q-250 0 -378 160t-128 443zM199 -244l684 1727h221l-682 -1727h-223zM406 578q0 -197 53 -298.5t192.5 -101.5t191.5 101.5t52 298.5q0 86 -10.5 150.5t-35 122.5t-74.5 89t-124 31 q-141 0 -193 -105.5t-52 -287.5z" />
<glyph unicode="&#xf9;" horiz-adv-x="1388" d="M233 418v737h256v-663q0 -78 4.5 -122t20.5 -91.5t53 -68t97 -20.5q115 0 159.5 66t44.5 203v696h256v-1155h-231l-12 121h-7q-104 -150 -301 -150q-180 0 -260 104.5t-80 342.5zM453 1505l215 121l266 -250l-139 -80z" />
<glyph unicode="&#xfa;" horiz-adv-x="1388" d="M233 418v737h256v-663q0 -78 4.5 -122t20.5 -91.5t53 -68t97 -20.5q115 0 159.5 66t44.5 203v696h256v-1155h-231l-12 121h-7q-104 -150 -301 -150q-180 0 -260 104.5t-80 342.5zM453 1376l268 250l213 -121l-342 -209z" />
<glyph unicode="&#xfb;" horiz-adv-x="1388" d="M233 418v737h256v-663q0 -78 4.5 -122t20.5 -91.5t53 -68t97 -20.5q115 0 159.5 66t44.5 203v696h256v-1155h-231l-12 121h-7q-104 -150 -301 -150q-180 0 -260 104.5t-80 342.5zM365 1425l329 187l330 -187l-84 -139l-242 137l-247 -137z" />
<glyph unicode="&#xfc;" horiz-adv-x="1388" d="M233 418v737h256v-663q0 -78 4.5 -122t20.5 -91.5t53 -68t97 -20.5q115 0 159.5 66t44.5 203v696h256v-1155h-231l-12 121h-7q-104 -150 -301 -150q-180 0 -260 104.5t-80 342.5zM328 1442q0 55 39 95t96 40q55 0 94 -40t39 -95q0 -57 -39 -96t-94 -39q-57 0 -96 39 t-39 96zM791 1441.5q0 55.5 38.5 95.5t96 40t95.5 -40t38 -95q0 -57 -38 -96t-95.5 -39t-96 39.5t-38.5 95z" />
<glyph unicode="&#xfd;" horiz-adv-x="1167" d="M152 1155h274l233 -891h5l229 891h266l-377 -1202q-76 -223 -154.5 -313.5t-238.5 -90.5q-76 0 -156 11v217q106 -8 109 -8q70 0 102.5 27.5t61.5 117.5l24 78zM342 1376l268 250l213 -121l-342 -209z" />
<glyph unicode="&#xfe;" horiz-adv-x="1206" d="M260 -436v1970h256v-502h4q47 78 108.5 112t155.5 34q117 0 203 -53.5t131 -143.5t66.5 -188.5t21.5 -208.5q0 -113 -21.5 -213.5t-67.5 -192.5t-133 -147.5t-204 -55.5q-92 0 -152.5 31t-107.5 103h-4v-545h-256zM516 451q0 -279 205 -279q225 0 225 406q0 63 -2 107 t-15.5 103.5t-36 97.5t-66.5 64.5t-105 26.5q-205 0 -205 -244v-282z" />
<glyph unicode="&#xff;" horiz-adv-x="1167" d="M152 1155h274l233 -891h5l229 891h266l-377 -1202q-76 -223 -154.5 -313.5t-238.5 -90.5q-76 0 -156 11v217q106 -8 109 -8q70 0 102.5 27.5t61.5 117.5l24 78zM217 1442q0 55 39 95t96 40q55 0 94 -40t39 -95q0 -57 -38.5 -96t-94.5 -39q-57 0 -96 39t-39 96z M680 1441.5q0 55.5 39 95.5t96 40t95 -40t38 -95q0 -57 -38 -96t-95 -39t-96 39.5t-39 95z" />
<glyph unicode="&#x152;" horiz-adv-x="2136" d="M174 709q0 336 157.5 532.5t452.5 196.5q113 0 204 -45t142 -125v147h785v-221h-524v-348h471v-221h-471v-408h542v-217h-803v154q-45 -82 -140 -128t-206 -46q-295 0 -452.5 195.5t-157.5 533.5zM444 709q0 -514 344 -514q334 0 334 514q0 242 -75.5 376t-258.5 134 q-344 0 -344 -510z" />
<glyph unicode="&#x153;" horiz-adv-x="2039" d="M188 553q0 270 126 426t368 156q240 0 360 -172q121 172 361 172q219 0 340 -148.5t121 -431.5q0 -18 -4 -88h-686q10 -287 258 -287q137 0 282 96l78 -190q-182 -111 -371 -111q-254 0 -374 177q-125 -176 -365 -177q-238 0 -366 155t-128 423zM451 553 q0 -186 54 -278.5t177 -92.5q121 0 175 93.5t54 277.5q0 172 -49 270.5t-180 98.5t-181 -98.5t-50 -270.5zM1176 647h448q-12 291 -217 291q-231 0 -231 -291z" />
<glyph unicode="&#x178;" horiz-adv-x="1167" d="M23 1415h288l277 -641l276 641h279l-426 -866v-549h-262v539zM217 1716q0 55 39 95t96 40q55 0 94 -39.5t39 -95.5q0 -57 -38.5 -96t-94.5 -39q-57 0 -96 39t-39 96zM680 1716.5q0 55.5 39 95t96 39.5t95 -39.5t38 -95.5q0 -57 -38 -96t-95 -39t-96 40t-39 95.5z" />
<glyph unicode="&#x2c6;" horiz-adv-x="784" d="M59 1425l330 187l330 -187l-84 -139l-242 137l-248 -137z" />
<glyph unicode="&#x2dc;" horiz-adv-x="1024" d="M150 1397q37 92 87 133t130 41q59 0 150 -41t130 -41q84 0 117 86l117 -88q-29 -78 -88.5 -125t-131.5 -47q-59 0 -149 41t-129 41q-84 0 -119 -86z" />
<glyph unicode="&#x2013;" horiz-adv-x="1392" d="M260 616v211h864v-211h-864z" />
<glyph unicode="&#x2014;" horiz-adv-x="2252" d="M260 512v209h1729v-209h-1729z" />
<glyph unicode="&#x2018;" horiz-adv-x="497" d="M10 1016l185 467h163l-69 -467h-279z" />
<glyph unicode="&#x2019;" horiz-adv-x="485" d="M125 1012l72 471h276l-182 -471h-166z" />
<glyph unicode="&#x201a;" horiz-adv-x="485" d="M125 -319l74 471h274l-182 -471h-166z" />
<glyph unicode="&#x201c;" horiz-adv-x="1085" d="M109 1012l182 471h166l-74 -471h-274zM539 1012l184 471h166l-72 -471h-278z" />
<glyph unicode="&#x201d;" horiz-adv-x="1085" d="M195 1012l73 471h275l-181 -471h-167zM627 1012l73 471h275l-180 -471h-168z" />
<glyph unicode="&#x201e;" horiz-adv-x="1087" d="M195 -319l73 471h277l-180 -471h-170zM627 -319l75 471h275l-182 -471h-168z" />
<glyph unicode="&#x2022;" horiz-adv-x="946" d="M127 696.5q0 143.5 100.5 243.5t243.5 100q141 0 241.5 -100t100.5 -243.5t-100.5 -243t-241.5 -99.5q-143 0 -243.5 99.5t-100.5 243z" />
<glyph unicode="&#x2026;" horiz-adv-x="1816" d="M227 117v10q0 55 43 90t105 35h4q61 0 103 -37t42 -96q0 -61 -42 -100t-105.5 -39t-106.5 38t-43 99zM754 117q0 59 43 97t106 38h4q61 0 103.5 -37t42.5 -96q0 -61 -42 -100t-106 -39q-68 0 -109.5 38t-41.5 99zM1282 117q0 59 43 97t107 38h4q61 0 103 -37t42 -96 q0 -61 -41 -100t-106 -39q-63 0 -106.5 38t-45.5 99z" />
<glyph unicode="&#x2039;" horiz-adv-x="522" d="M2 639l236 424l180 -90l-191 -336l191 -332l-180 -88z" />
<glyph unicode="&#x203a;" horiz-adv-x="509" d="M92 305l189 332l-189 336l180 90l234 -424l-234 -422z" />
<glyph unicode="&#x20ac;" horiz-adv-x="1472" d="M49 477l41 144h121q-2 16 -2 47v84q0 25 2 36h-139l43 142h112q82 508 596 508q281 0 510 -221l-151 -173q-164 176 -363 177q-274 0 -325 -291h555l-41 -142h-533v-122q0 -29 2 -45h516l-43 -144h-454q49 -287 315 -287q211 0 391 179l137 -179q-125 -113 -245.5 -164 t-270.5 -51q-268 0 -410.5 127t-185.5 375h-178z" />
<glyph unicode="&#x2122;" horiz-adv-x="1570" d="M229 1370v113h437v-113h-152v-426h-133v426h-152zM784 944v539h121l162 -240l156 240h120v-539h-124v309l-152 -231l-152 231v-309h-131z" />
<glyph unicode="&#xe000;" horiz-adv-x="1155" d="M0 1155h1155v-1155h-1155v1155z" />
<glyph unicode="&#xfb01;" horiz-adv-x="1318" d="M25 930v209h145v80q0 186 72.5 257.5t273.5 71.5q74 0 127 -10v-190q-43 8 -92 8q-76 0 -102.5 -25.5t-26.5 -93.5v-98h207v-209h-203v-930h-256v930h-145zM840 1446q0 66 42 102.5t113 36.5q74 0 116 -37t42 -102q0 -63 -44 -102t-114 -39q-72 0 -113.5 39t-41.5 102z M868 0v1155h256v-1155h-256z" />
<glyph unicode="&#xfb02;" horiz-adv-x="1388" d="M25 930v209h145v80q0 186 72.5 257.5t273.5 71.5q74 0 127 -10v-190q-43 8 -92 8q-76 0 -102.5 -25.5t-26.5 -93.5v-98h207v-209h-203v-930h-256v930h-145zM938 242v1292h256v-1229q0 -66 20.5 -84t81.5 -18h58v-203q-82 -14 -168 -14q-141 0 -194.5 56.5t-53.5 199.5z " />
<glyph unicode="&#xfb03;" horiz-adv-x="2009" d="M25 930v209h145v80q0 186 72.5 257.5t273.5 71.5q74 0 127 -10v-190q-43 8 -92 8q-76 0 -102.5 -25.5t-26.5 -93.5v-98h207v-209h-203v-930h-256v930h-145zM715 930v209h145v80q0 186 73 257.5t273 71.5q74 0 127 -10v-190q-43 8 -92 8q-76 0 -102.5 -25.5t-26.5 -93.5 v-98h207v-209h-203v-930h-256v930h-145zM1530 1446q0 66 42 102.5t114 36.5q74 0 115.5 -37t41.5 -102q0 -63 -44 -102t-113 -39q-72 0 -114 39t-42 102zM1559 0v1155h256v-1155h-256z" />
<glyph unicode="&#xfb04;" horiz-adv-x="2078" d="M25 930v209h145v80q0 186 72.5 257.5t273.5 71.5q74 0 127 -10v-190q-43 8 -92 8q-76 0 -102.5 -25.5t-26.5 -93.5v-98h207v-209h-203v-930h-256v930h-145zM715 930v209h145v80q0 186 73 257.5t273 71.5q74 0 127 -10v-190q-43 8 -92 8q-76 0 -102.5 -25.5t-26.5 -93.5 v-98h207v-209h-203v-930h-256v930h-145zM1628 242v1292h256v-1229q0 -66 20.5 -84t82.5 -18h57v-203q-82 -14 -168 -14q-141 0 -194.5 56.5t-53.5 199.5z" />
<glyph horiz-adv-x="847" />
</font>
</defs>
</svg>
