<?xml version="1.0" standalone="no"?>
<!DOCTYPE svg PUBLIC "-//W3C//DTD SVG 1.1//EN" "http://www.w3.org/Graphics/SVG/1.1/DTD/svg11.dtd" >
<svg xmlns="http://www.w3.org/2000/svg">
<metadata>
This is a custom SVG webfont generated by Font Squirrel.
Copyright   : k 
</metadata>
<defs>
<font id="HelveticaCondensedBlackSeRg" horiz-adv-x="0" >
<font-face units-per-em="2048" ascent="1638" descent="-410" />
<missing-glyph horiz-adv-x="960" />
<glyph unicode=" "  horiz-adv-x="960" />
<glyph unicode="&#x09;" horiz-adv-x="960" />
<glyph unicode="&#xa0;" horiz-adv-x="960" />
<glyph unicode="!" horiz-adv-x="645" d="M133 1055v331h332v-331l-90 -609h-158zM147 4v313h299v-313h-299z" />
<glyph unicode="&#x22;" horiz-adv-x="645" d="M18 850v518h213v-518h-213zM360 850v518h220v-518h-220z" />
<glyph unicode="#" horiz-adv-x="903" d="M4 403v205h184l29 185h-170v204h199l57 389h176l-61 -389h147l58 389h170l-56 -389h156v-204h-184l-29 -185h156v-205h-185l-57 -399h-176l61 399h-147l-58 -399h-170l58 399h-158zM360 608h148l29 185h-148z" />
<glyph unicode="$" horiz-adv-x="903" d="M14 346q0 6 1 13.5t1 15.5t1 15t1 13h242q0 -119 21.5 -155.5t107.5 -59.5v334q-164 61 -251 150.5t-111 185.5q-6 20 -9.5 43t-3.5 45q0 147 104.5 263t241.5 116v133h162v-133q129 0 235.5 -101.5t106.5 -283.5h-256q0 66 -24.5 114t-89.5 58v-319q166 -59 255 -155.5 t117 -201.5q6 -25 9.5 -50.5t3.5 -49.5q0 -141 -97.5 -250t-259.5 -109v-202h-162v200q-2 2 -3 2h-3q-127 2 -233.5 94.5t-106.5 274.5zM274 997q0 -53 26 -96t89 -65v276q-33 0 -54.5 -10t-31.5 -33q-20 -10 -24.5 -29.5t-4.5 -42.5zM494 188q66 23 90 62t24 82t-30.5 85 t-83.5 77v-306z" />
<glyph unicode="%" horiz-adv-x="1538" d="M33 1012q0 172 74.5 257t224.5 85q154 0 229.5 -80t75.5 -262q0 -174 -70.5 -260t-234.5 -86q-170 0 -234.5 96t-64.5 250zM260 1012q0 -78 9.5 -127t62.5 -49q35 0 50 31.5t19 70.5q2 20 2 40v34q0 86 -9 136t-62 50q-39 0 -53.5 -38t-16.5 -83q-2 -18 -2 -35v-30z M375 -39l622 1407h158l-618 -1407h-162zM893 332q0 176 78 262t227 86q152 0 227.5 -81t75.5 -267q0 -170 -69.5 -255t-233.5 -85q-172 0 -238.5 95t-66.5 245zM1126 332q0 -76 9.5 -123t62.5 -47q37 0 51.5 31.5t18.5 68.5q2 20 2 38v32q0 86 -9.5 138t-62.5 52 q-39 0 -53.5 -38t-16.5 -83q-2 -18 -2 -36v-33z" />
<glyph unicode="&#x26;" horiz-adv-x="1245" d="M78 379q0 158 72.5 260t179.5 168q-57 82 -85 155.5t-28 131.5q0 133 98.5 214t216.5 91q8 2 17 2h16h25q174 -4 255 -95.5t81 -201.5q0 -16 -2 -32l-4 -32q-16 -84 -76 -160.5t-154 -115.5l144 -213q12 29 21 61.5t9 67.5v15v20q0 6 -1 11t-1 11h260v-19q0 -9 -2 -20 q-6 -109 -42 -212t-85 -183l201 -299h-332l-57 86q-53 -53 -125 -79.5t-145 -30.5q-8 -2 -18 -3h-17h-7h-8q-139 4 -260 87t-139 239v8v8q-2 6 -3 12.5t-1 12.5q-2 8 -3 17.5t-1 17.5zM373 412q0 -6 1 -13.5t1 -15.5q4 -20 10 -40.5t14 -39.5q20 -31 53 -54.5t68 -29.5 q6 0 11.5 -1t11.5 -1q8 0 16 1t16 3q29 6 55.5 23.5t45.5 44.5l-215 319q-10 -10 -20 -22l-17 -23q-27 -41 -39 -79.5t-12 -71.5zM483 1116q0 -20 8.5 -44.5t22.5 -51.5q6 -12 14.5 -25.5t18.5 -25.5q33 16 52 34.5t30 36.5q12 18 15 37t3 35q0 25 -15.5 46.5t-33.5 31.5 q-6 4 -11 6t-12 2q-45 0 -68.5 -23.5t-23.5 -58.5z" />
<glyph unicode="'" horiz-adv-x="516" d="M96 807v100q76 0 117 50.5t41 125.5h-158v285h287v-313q0 -111 -74 -179.5t-213 -68.5z" />
<glyph unicode="(" horiz-adv-x="516" d="M20 561q0 37 3 73l4 73q16 170 65 337.5t133 323.5h232q-57 -123 -103.5 -343t-46.5 -482q0 -94 8.5 -192.5t24.5 -198.5q18 -121 51 -241t80 -235l-231 -2q-76 158 -127.5 319t-75.5 324q-8 61 -12.5 122t-4.5 122z" />
<glyph unicode=")" horiz-adv-x="516" d="M25 -326q33 84 58.5 167t41.5 165q27 123 39 248t12 244q0 260 -46 490.5t-105 379.5h229q94 -182 150.5 -399t60.5 -441v-15v-15q0 -55 -3 -110.5t-11 -113.5q-20 -152 -68.5 -303t-128.5 -295z" />
<glyph unicode="*" horiz-adv-x="903" d="M90 1083l57 158l199 -72v199h176v-199l201 72l55 -158l-213 -57l158 -190l-143 -99l-148 170l-129 -170l-141 99l141 176z" />
<glyph unicode="+" horiz-adv-x="903" d="M18 375v205h314v327h219v-327h299v-205h-299v-371h-219v371h-314z" />
<glyph unicode="," horiz-adv-x="645" d="M147 4v313h318v-313q0 -106 -89 -181t-229 -75v98q74 2 122 43t48 115h-170z" />
<glyph unicode="-" horiz-adv-x="645" d="M61 432v291h476v-291h-476z" />
<glyph unicode="." horiz-adv-x="645" d="M162 4v313h303v-313h-303z" />
<glyph unicode="/" horiz-adv-x="516" d="M-61 -168l401 1536h203l-404 -1536h-200z" />
<glyph unicode="0" horiz-adv-x="903" d="M33 317v709q0 27 4 58.5t14 64.5q29 82 113 150.5t268 68.5q250 0 334 -109.5t84 -261.5v-651q0 -223 -128 -303t-304 -80q-213 10 -299 107t-86 247zM332 375q0 -96 23.5 -141.5t76.5 -45.5q57 0 81 29t24 158v594q0 76 -18.5 124t-86.5 48q-63 0 -81.5 -48.5 t-18.5 -123.5v-594z" />
<glyph unicode="1" horiz-adv-x="903" d="M47 926v215q6 0 11 -1t12 -1q4 0 9 -1t11 -1q123 0 216 54t112 148h219v-1335h-305v922h-285z" />
<glyph unicode="2" horiz-adv-x="903" d="M18 4q6 207 86 347.5t175 242.5q55 61 109 113.5t91 99.5q14 20 25.5 40.5t17.5 41.5q10 27 14.5 51.5t4.5 46.5q0 61 -27 107.5t-63 46.5q-88 0 -111 -64.5t-23 -197.5h-299q10 219 86 354t347 135q233 0 318 -113.5t85 -261.5v-42q0 -22 -4 -44q-16 -104 -86 -195 t-150 -169l-157 -153q-72 -71 -82 -130h489v-256h-846z" />
<glyph unicode="3" horiz-adv-x="903" d="M14 989v21q0 10 2 22q12 133 107.5 243.5t308.5 110.5q164 0 269.5 -90t105.5 -241v-29q0 -14 -2 -29q-6 -84 -44 -158.5t-138 -101.5q139 -53 176 -140t37 -208v-29q0 -209 -130.5 -296t-287.5 -87q-150 0 -275 98.5t-125 389.5h299q0 -8 -1 -17.5t-1 -19.5v-1 q0 -1 -2 -3q0 -10 -1 -20.5t-1 -18.5q0 -66 22.5 -117t69.5 -51q78 0 106 36t28 165q0 121 -54.5 155.5t-208.5 34.5v213h12h11q4 -2 9 -2h11q78 0 137.5 31t67.5 162q0 53 -23.5 98t-80.5 45q-53 0 -78 -47t-25 -107v-11q0 -5 2 -11v-12v-13h-299q0 4 -1 8.5t-1 10.5 q0 4 -1 8t-1 8z" />
<glyph unicode="4" horiz-adv-x="903" d="M-10 260v248l428 831h319v-831h127v-248h-127v-256h-286v256h-461zM231 508h220v418z" />
<glyph unicode="5" horiz-adv-x="903" d="M43 383q0 4 1 8t1 10q0 4 1 8.5t1 8.5h285q0 -129 30.5 -165t88.5 -36q47 0 69.5 64.5t22.5 146.5v26q0 13 -2 25q-6 86 -34 158t-75 72q-53 0 -78.5 -17.5t-36.5 -83.5h-270l43 731h703v-241h-476l-14 -262q23 39 91.5 67.5t146.5 28.5q10 0 21 -1t22 -1q96 -12 176 -91 t90 -259v-17v-18q2 -6 2 -13v-12q0 -14 1 -28.5t1 -26.5q0 -256 -91 -353.5t-202 -119.5q-29 -6 -56.5 -9l-53.5 -6l-29 -2q-190 2 -284.5 127t-94.5 281z" />
<glyph unicode="6" horiz-adv-x="903" d="M47 360v652q0 195 111.5 284.5t273.5 89.5q176 0 290 -82.5t114 -277.5h-299v14q0 47 -26 72t-56 29q-4 2 -8 2h-7h-7q-3 0 -7 -2q-35 -4 -64.5 -33t-29.5 -82v-205q41 33 101.5 54.5t123.5 21.5q8 0 17.5 -1t19.5 -1q96 -12 176 -105.5t80 -314.5v-29q0 -213 -92 -341 t-307 -128q-14 0 -27.5 1.5t-28.5 1.5q-131 12 -239.5 94.5t-108.5 285.5zM332 446q0 -106 16.5 -162.5t69.5 -66.5q68 0 100.5 40t32.5 189q0 100 -20.5 160t-98.5 60q-63 0 -81.5 -60t-18.5 -160z" />
<glyph unicode="7" horiz-adv-x="903" d="M18 1098v241h803v-227q-127 -240 -209 -524.5t-104 -583.5h-332q25 225 68 385t104 307q39 94 86 192l103 210h-519z" />
<glyph unicode="8" horiz-adv-x="903" d="M33 418q0 133 50 204.5t134 114.5q-88 20 -136 101.5t-48 179.5q0 14 1 27.5t3 27.5q16 123 110.5 225.5t270.5 102.5h18q190 0 290.5 -102.5t117.5 -225.5q2 -14 3 -27.5t1 -27.5q0 -94 -47 -176t-135 -105q6 -2 12 -5t10 -7q76 -39 119 -98.5t43 -223.5 q0 -223 -110.5 -324.5t-307.5 -101.5q-203 0 -301 97.5t-98 343.5zM332 403q0 -86 18.5 -143t81.5 -57q78 0 98.5 52t20.5 148q0 121 -31 170.5t-88 49.5q-63 0 -81.5 -54.5t-18.5 -165.5zM332 997q0 -78 28.5 -119.5t71.5 -41.5q57 0 88 37.5t31 138.5q0 76 -31 116.5 t-88 40.5q-53 0 -76.5 -48t-23.5 -124z" />
<glyph unicode="9" horiz-adv-x="903" d="M33 850q0 250 67.5 395.5t302.5 155.5h29q219 0 303 -116t96 -255q2 -18 3.5 -37.5t1.5 -38.5v-594q0 -170 -98.5 -276.5t-305.5 -106.5q-172 0 -278.5 76t-106.5 279h299v-3v-5q-2 -2 -2 -6v-3q0 -51 28.5 -79.5t63.5 -28.5h7q3 0 8 2q33 6 59.5 36.5t26.5 86.5v219 q-25 -39 -82.5 -67.5t-122.5 -28.5q-12 0 -24.5 1t-22.5 3q-94 16 -173 106t-79 285zM332 940q0 -121 18.5 -183.5t81.5 -62.5q78 0 98.5 80t20.5 180q0 119 -31 167t-88 48q-53 0 -76.5 -60t-23.5 -169z" />
<glyph unicode=":" horiz-adv-x="516" d="M111 4v313h301v-313h-301zM111 723v317h301v-317h-301z" />
<glyph unicode=";" horiz-adv-x="516" d="M96 4v313h316v-313q0 -106 -88 -181t-228 -75v98q76 2 124 43t48 115h-172zM96 709v317h301v-317h-301z" />
<glyph unicode="&#x3c;" horiz-adv-x="903" d="M47 389v176l774 418v-205l-547 -299l547 -303v-215z" />
<glyph unicode="=" horiz-adv-x="903" d="M18 188v215h846v-215h-846zM18 551v213h846v-213h-846z" />
<glyph unicode="&#x3e;" horiz-adv-x="903" d="M61 -39v215l547 289l-547 299v233l775 -432v-190z" />
<glyph unicode="?" horiz-adv-x="903" d="M4 983q0 27 2 55.5t8 57.5q20 121 105.5 220t283.5 99q197 0 309.5 -81t123.5 -251v-22q0 -100 -45.5 -175t-98.5 -141q-8 -8 -15 -17t-15 -17q-45 -57 -80 -116.5t-35 -133.5q0 -2 1 -5t1 -7q0 -2 1 -4.5t1 -4.5v-4v-4h-291v119q0 72 22.5 115t57.5 82l35 35 q18 19 37 42q18 20 34.5 45t32.5 56q18 41 26.5 74.5t8.5 58.5q0 55 -31.5 82.5t-79.5 27.5q-53 0 -76.5 -50t-23.5 -136h-299zM246 4v313h305v-313h-305z" />
<glyph unicode="@" horiz-adv-x="1538" d="M57 682q0 295 170 476t373 243q49 14 97 21.5t96 7.5q37 0 75.5 -4.5t77.5 -12.5q178 -41 328.5 -183.5t169.5 -408.5v-30q0 -156 -86 -273t-191 -178q-51 -31 -98 -46t-86 -15t-67.5 23.5t-28.5 62.5q0 4 1 9t3 11q0 4 1 9t1 9q-33 -35 -70 -59.5t-73 -38.5 q-27 -8 -54.5 -13t-52.5 -5q-106 0 -187 69.5t-96 165.5q0 6 -1 11.5t-1 9.5q0 6 -1 12t-1 12l-4 29q-2 14 -2 27q0 139 54.5 226t117.5 138l29 21q14 10 29 18q20 14 49.5 21.5t60.5 11.5q10 0 21.5 1t21.5 1h12h13q68 -4 127 -30.5t84 -76.5l14 101h186l-86 -561 q0 -2 -1 -5l-1 -2q0 -2 -1 -4t-1 -4q0 -16 7.5 -26.5t17.5 -10.5q14 0 35.5 12.5t42.5 34.5q35 35 64.5 88.5t37.5 116.5q0 8 1 17.5t1 17.5q2 16 3 33.5t1 34.5q0 209 -138 348t-359 139q-20 0 -42 -2l-42 -4q-190 -29 -349 -183.5t-159 -432.5v-5v-4v-3q0 -1 2 -1v-7v-5 q6 -207 183 -366.5t396 -159.5q18 0 37 1t39 5q84 12 167 54t159 118h184q-96 -145 -235.5 -218t-288.5 -85q-14 0 -28.5 -1t-29.5 -1q-262 0 -484 174t-241 479q0 6 -1 11t-1 11t-1 11.5t-1 11.5zM551 623q0 -76 43 -119t96 -43q2 0 6 1t10.5 1t10.5 1t6 1q74 10 129 76.5 t55 195.5q-2 74 -43 110t-92 36q-12 0 -24.5 -2t-24.5 -7q-63 -18 -115.5 -83.5t-56.5 -167.5z" />
<glyph unicode="A" horiz-adv-x="1032" d="M-6 4l313 1364h375l305 -1364h-334l-43 270h-245l-43 -270h-328zM393 522h174l-84 604z" />
<glyph unicode="B" horiz-adv-x="1032" d="M63 4v1364h449q160 0 289 -72.5t129 -255.5q0 -117 -38 -182t-83 -94q-18 -10 -36.5 -17.5t-33.5 -9.5q109 -53 157 -121.5t48 -212.5q0 -193 -96 -296t-322 -103h-463zM379 246q121 0 183.5 26.5t62.5 145.5q0 111 -68 138.5t-178 37.5v-348zM379 836q121 0 169 32.5 t48 143.5q0 53 -29.5 83.5t-83.5 30.5h-104v-290z" />
<glyph unicode="C" horiz-adv-x="1032" d="M49 418v608q0 162 99.5 275.5t349.5 113.5q203 0 324.5 -99t121.5 -304v-119h-348v176q0 41 -29.5 64.5t-66.5 27.5h-5h-6h-5h-5q-39 -4 -69.5 -29.5t-30.5 -76.5v-723q0 -47 30.5 -77t69.5 -34h5h5h9q4 0 6 2q41 4 73.5 39t32.5 98v191h334v-219q0 -156 -97 -236 t-214 -104q-35 -8 -70 -11.5t-65 -3.5q-229 0 -339 102.5t-110 338.5z" />
<glyph unicode="D" horiz-adv-x="1032" d="M78 4v1364h377q268 0 378.5 -60.5t110.5 -252.5v-723q0 -150 -96 -239t-322 -89h-448zM408 246q90 0 146 23.5t56 119.5v623q0 80 -49 103.5t-106 25.5h-24h-23v-895z" />
<glyph unicode="E" horiz-adv-x="903" d="M61 4v1364h760v-256h-432v-262h404v-285h-404v-291h432v-270h-760z" />
<glyph unicode="F" horiz-adv-x="903" d="M76 4v1364h760v-256h-433v-248h390v-270h-390v-590h-327z" />
<glyph unicode="G" horiz-adv-x="1032" d="M49 360v666q0 182 102.5 285.5t331.5 103.5q203 0 317.5 -97t114.5 -292v-119h-333v176q0 41 -31 59.5t-68 18.5h-5h-5q-41 -4 -74.5 -27.5t-33.5 -64.5v-737q0 -55 33.5 -86t74.5 -35h5h5h9h6q37 6 67.5 33.5t30.5 72.5v177h-113v243h432v-733h-219l-14 115 q-8 -59 -98 -104.5t-199 -45.5h-11h-12q-117 6 -215 92t-98 299z" />
<glyph unicode="H" horiz-adv-x="1032" d="M49 4v1364h330v-518h217v518h334v-1364h-334v561h-217v-561h-330z" />
<glyph unicode="I" horiz-adv-x="516" d="M82 4v1364h330v-1364h-330z" />
<glyph unicode="J" horiz-adv-x="817" d="M0 412q0 6 1 12t1 12q0 4 1 7t1 8v7v7h270v-176q0 -33 18.5 -46.5t39.5 -13.5q23 0 40 12.5t17 32.5v1094h334v-1079q0 -137 -92 -224.5t-256 -87.5q-170 0 -272.5 83.5t-102.5 351.5z" />
<glyph unicode="K" horiz-adv-x="1032" d="M63 4v1364h316v-547l231 547h363l-305 -604l305 -760h-348l-170 442l-76 -129v-313h-316z" />
<glyph unicode="L" horiz-adv-x="817" d="M47 4v1364h328v-1094h389v-270h-717z" />
<glyph unicode="M" horiz-adv-x="1454" d="M90 4v1364h461l158 -817l170 817h446v-1364h-299l29 1051l-234 -1051h-227l-234 1051l43 -1051h-313z" />
<glyph unicode="N" horiz-adv-x="1032" d="M63 4v1364h330l260 -788l-43 788h320v-1364h-334l-260 760l43 -760h-316z" />
<glyph unicode="O" horiz-adv-x="1032" d="M63 418v608q0 205 131.5 290t317.5 85q25 0 50 -2l50 -4q131 -18 238.5 -100.5t107.5 -268.5v-608q0 -203 -107.5 -322t-352.5 -119q-250 0 -342.5 134.5t-92.5 306.5zM393 346q0 -57 36 -87t79 -30h3h3q41 2 76 31t35 86v694q0 57 -35 86t-76 31h-3h-3q-43 0 -79 -28.5 t-36 -88.5v-694z" />
<glyph unicode="P" horiz-adv-x="1032" d="M78 4v1364h391q289 0 389 -104.5t100 -309.5q0 -266 -135 -344t-319 -78q-12 0 -24.5 1.5t-22.5 1.5q-12 0 -24.5 1t-24.5 1v-533h-330zM408 778q152 0 184.5 54.5t32.5 164.5q0 72 -44 100.5t-116 28.5h-57v-348z" />
<glyph unicode="Q" horiz-adv-x="1032" d="M63 418v622q0 195 124 278t311 83q25 0 50 -2l50 -4q131 -18 238.5 -100.5t107.5 -268.5v-608q0 -106 -30.5 -188.5t-73.5 -125.5l161 -157l-190 -158l-186 186q-6 2 -12.5 1t-14.5 -1q-25 -2 -50 -2h-48q-201 0 -314 91.5t-123 353.5zM379 346q0 -57 36 -87t79 -30h3h3 q41 2 75.5 31t34.5 86v694q0 57 -34.5 86t-75.5 31h-3h-3q-43 0 -79 -28.5t-36 -88.5v-694z" />
<glyph unicode="R" horiz-adv-x="1032" d="M63 4v1364h478q170 0 274.5 -80t114.5 -262q0 -131 -40 -217t-136 -129q76 -20 118.5 -63.5t42.5 -108.5l15 -332q0 -76 18.5 -102.5t38.5 -26.5v-43h-291q-63 0 -81.5 19.5t-18.5 95.5v284q0 68 -26.5 101t-100.5 33h-76v-533h-330zM393 778h76q47 0 87 39t40 127v39 q-20 119 -72.5 138.5t-130.5 19.5v-363z" />
<glyph unicode="S" horiz-adv-x="903" d="M0 393q0 10 1 20.5t1 20.5v8v9q2 6 2 14v14h299v-8v-8q-2 -4 -2 -9v-10q-2 -8 -3 -16t-1 -14q0 -92 37 -139.5t82 -49.5h3h3h9q5 0 9 2q37 8 67 42t30 91q0 59 -40 102.5t-100 82.5q-29 20 -59.5 38.5t-61.5 41.5q-98 63 -180 157.5t-82 253.5q0 2 1 4t1 7q0 2 1 4t1 4 q0 10 1 20t1 21q18 121 125 220t273 99t292 -100.5t126 -317.5v-28h-299v39q0 72 -29 110.5t-64 48.5q-8 2 -14 3t-12 1h-3h-3q-35 -2 -65 -30.5t-30 -71.5q0 -63 44.5 -105t107.5 -79l52 -32l57 -32q94 -55 172.5 -142t85.5 -247v-35q0 -242 -130.5 -331t-302.5 -89l-43 -2 q-174 10 -267 116.5t-93 301.5z" />
<glyph unicode="T" horiz-adv-x="903" d="M18 1098v270h832v-270h-242v-1094h-334v1094h-256z" />
<glyph unicode="U" horiz-adv-x="1032" d="M63 360v1008h330v-1036q0 -53 31 -84t68 -33h3h3h8q4 0 6 2q37 4 67.5 37t30.5 92v1022h334v-965q0 -246 -112.5 -336t-305.5 -90q-229 0 -346 90t-117 293z" />
<glyph unicode="V" horiz-adv-x="1075" d="M14 1368h330l160 -936l172 936h332l-303 -1364h-390z" />
<glyph unicode="W" horiz-adv-x="1454" d="M4 1368h313l86 -922l148 922h299l133 -922l100 922h303l-231 -1364h-362l-99 936l-114 -936h-349z" />
<glyph unicode="X" horiz-adv-x="1075" d="M14 4l301 690l-286 674h315l160 -399l158 399h317l-289 -674l303 -690h-346l-143 414l-174 -414h-316z" />
<glyph unicode="Y" horiz-adv-x="1075" d="M0 1368h330l174 -428l172 428h317l-331 -760v-604h-332v604z" />
<glyph unicode="Z" horiz-adv-x="817" d="M-10 4v256l413 838h-385v270h746v-256l-404 -838h418v-270h-788z" />
<glyph unicode="[" horiz-adv-x="516" d="M68 -340v1708h403v-170h-145v-1366h145v-172h-403z" />
<glyph unicode="\" horiz-adv-x="473" d="M-197 1368h244l604 -1364h-248z" />
<glyph unicode="]" horiz-adv-x="516" d="M10 -154h158v1338h-158v184h416v-1708h-416v186z" />
<glyph unicode="^" horiz-adv-x="960" />
<glyph unicode="_" horiz-adv-x="903" d="M-10 -96h921v-115h-921v115z" />
<glyph unicode="`" horiz-adv-x="516" d="M111 821v320q0 119 78.5 182t207.5 63v-102q-76 0 -116.5 -43t-40.5 -129h157v-291h-286z" />
<glyph unicode="a" horiz-adv-x="903" d="M33 260q0 174 59.5 233.5t169.5 94.5q41 14 88 28.5t101 34.5q33 12 51 30.5t26 39.5q4 8 6.5 16t2.5 17v3v3q-2 33 -27 61.5t-59 28.5q-78 0 -106 -36t-28 -120h-284q0 195 102.5 278t282.5 83q221 0 305 -73t96 -161q0 -10 1 -21.5t1 -21.5v-590q0 -59 4 -83.5t9 -43.5 l8 -24q4 -12 8 -33h-285l-14 100q-25 -53 -81 -83.5t-120 -40.5q-10 0 -21.5 -1.5t-21.5 -1.5h-5h-7q-98 4 -180 72t-82 211zM315 303q0 -2 2 -4v-4v-6q2 -39 30 -64.5t59 -29.5q4 -2 8 -2h8q4 0 9 1t9 1q37 8 67 46t30 105v162l-40 -20q-19 -9 -38 -19 q-59 -29 -101.5 -63.5t-42.5 -98.5v-4z" />
<glyph unicode="b" horiz-adv-x="903" d="M61 4v1382h299v-432q20 18 43 34t43 28q37 20 74 29.5t70 9.5q102 0 174 -83t72 -235v-477q0 -117 -80 -204t-189 -87q-25 0 -51.5 6.5t-52.5 18.5q-31 14 -60.5 37.5t-56.5 58.5v-86h-285zM360 332q0 -51 24 -85t52 -44q4 0 9.5 -1t9.5 -1h5h5q27 6 49.5 38.5t22.5 92.5 v362q0 47 -21.5 74t-46.5 35q-6 0 -10 1t-8 1h-6h-5q-31 -6 -55.5 -35t-24.5 -76v-362z" />
<glyph unicode="c" horiz-adv-x="903" d="M76 303v434q0 141 69.5 236.5t272.5 95.5q186 0 294.5 -80t108.5 -313v-39h-284v100q0 47 -21.5 73t-46.5 32q-6 0 -10 1t-8 1h-6h-5q-31 -4 -55.5 -30t-24.5 -64v-447q0 -49 25 -78.5t55 -36.5h5h6q4 0 8 1t10 1q25 8 46.5 37t21.5 76v129h284v-47q0 -229 -101.5 -318.5 t-287.5 -89.5q-162 0 -259 78t-97 248z" />
<glyph unicode="d" horiz-adv-x="903" d="M61 317v476q0 143 74 211.5t162 68.5h13q7 0 16 -2q59 -6 113.5 -44t82.5 -101v460h285v-1382h-256v129q-33 -59 -86 -96t-109 -47q-14 -4 -27.5 -5t-27.5 -1q-94 0 -167 78.5t-73 254.5zM346 346q0 -53 24.5 -86t55.5 -39h5h5q4 0 8.5 1t10.5 1q25 8 46 39t21 84v363 q0 47 -21.5 73.5t-45.5 34.5q-6 0 -10.5 1t-8.5 1h-5h-5q-31 -6 -55.5 -34.5t-24.5 -75.5v-363z" />
<glyph unicode="e" horiz-adv-x="903" d="M47 303v434q0 184 127 258t291 74q172 0 264 -83t92 -236v-271h-489v-162q0 -61 29.5 -97t64.5 -38h3h3h3h3q37 2 68 40t31 110v43h284v-39q0 -166 -92 -262.5t-264 -96.5q-186 0 -302 83t-116 243zM332 666h219v39q0 66 -31 112.5t-88 46.5q-63 0 -81.5 -60.5 t-18.5 -131.5v-3v-3z" />
<glyph unicode="f" horiz-adv-x="645" d="M33 821v205h114v115q0 119 71 182t200 63h162v-217q-63 0 -98.5 -9t-35.5 -62v-72h134v-205h-134v-817h-299v817h-114z" />
<glyph unicode="g" horiz-adv-x="903" d="M47 -37l299 -2v-1v-3q-2 -2 -2 -3v-1q0 -43 26.5 -64.5t61.5 -21.5h11q5 0 12 2q31 6 56.5 25.5t25.5 54.5v198q-31 -39 -77 -67.5t-95 -38.5q-16 -4 -33 -6t-31 -2q-92 0 -166 67.5t-74 216.5v476q0 135 80 203.5t174 68.5q12 0 24.5 -1t25.5 -5q53 -10 101 -44t71 -89 v114h284v-1050q0 -168 -96 -240t-213 -84q-14 -2 -30.5 -3t-30.5 -1q-186 0 -290 69.5t-114 231.5zM346 389q0 -53 24.5 -86t55.5 -39h5h5q4 0 8.5 1t10.5 1q25 8 46 39t21 84v320q0 47 -21.5 73.5t-45.5 34.5q-6 0 -10.5 1t-8.5 1h-5h-5q-31 -6 -55.5 -34.5t-24.5 -75.5 v-320z" />
<glyph unicode="h" horiz-adv-x="903" d="M61 4v1382h299v-417q31 41 73 65.5t85 34.5l32 4q15 2 30 2q94 0 167.5 -66.5t73.5 -187.5v-817h-299v733q0 45 -21.5 69.5t-47.5 27.5h-3h-4q-4 0 -8 -1.5t-10 -1.5q-25 -8 -46.5 -33.5t-21.5 -60.5v-733h-299z" />
<glyph unicode="i" horiz-adv-x="516" d="M96 4v1036h301v-1036h-301zM96 1141v245h301v-245h-301z" />
<glyph unicode="j" horiz-adv-x="516" d="M25 -125q53 2 69.5 16.5t16.5 100.5v1048h301v-1079q0 -156 -53.5 -217t-116.5 -74q-18 -6 -38 -7t-36 -1l-143 -2v215zM111 1141v245h301v-245h-301z" />
<glyph unicode="k" horiz-adv-x="903" d="M47 4v1382h299v-677l191 331h327l-284 -417l284 -619h-299l-176 399l-43 -71v-328h-299z" />
<glyph unicode="l" horiz-adv-x="516" d="M82 4v1382h301v-1382h-301z" />
<glyph unicode="m" horiz-adv-x="1331" d="M57 4v1036h287v-114q35 57 85 91t106 44q10 2 22 3t23 1q66 0 121 -35t75 -104q29 61 84 95t117 42q8 0 17.5 1t17.5 1h8h8q84 -6 153.5 -62.5t69.5 -166.5v-832h-286v719q0 47 -22.5 73.5t-49.5 32.5h-5h-5q-29 0 -53.5 -26.5t-24.5 -79.5v-719h-287v719 q0 47 -22.5 73.5t-49.5 32.5h-5h-5q-29 0 -53.5 -26.5t-24.5 -79.5v-719h-301z" />
<glyph unicode="n" horiz-adv-x="903" d="M76 4v1036h270v-147q27 72 80 111.5t113 50.5q12 2 23 3t24 1q90 0 162.5 -56.5t72.5 -152.5v-846h-284v719q0 41 -21.5 65.5t-46.5 30.5q-6 0 -10 1t-8 1h-4h-3q-27 -2 -48 -25.5t-21 -72.5v-719h-299z" />
<glyph unicode="o" horiz-adv-x="903" d="M76 274v504q0 133 105.5 212t269.5 79q205 0 287.5 -90t82.5 -201v-504q0 -150 -94 -223.5t-276 -73.5q-205 0 -290 85t-85 212zM360 289q0 -47 24 -77t52 -38q4 0 9.5 -1t9.5 -1h5h5q27 4 49.5 29.5t22.5 72.5v463q0 47 -22.5 74t-49.5 33h-5h-5q-4 0 -9.5 -1t-9.5 -1 q-29 -8 -52.5 -36t-23.5 -69v-448z" />
<glyph unicode="p" horiz-adv-x="903" d="M61 -340v1380h271v-133q35 57 80 92t92 50q16 6 32.5 8t30.5 2q96 0 175 -83t79 -239v-477q0 -113 -75.5 -200t-178.5 -87q-25 0 -51.5 6.5t-50.5 20.5q-27 12 -53.5 34.5t-51.5 55.5v-430h-299zM360 332q0 -51 24 -85t52 -44q4 0 9.5 -1t9.5 -1h5h5q27 6 49.5 38.5 t22.5 92.5v362q0 53 -21.5 82t-46.5 37q-6 0 -10 1t-8 1h-6h-5q-31 -6 -55.5 -36.5t-24.5 -84.5v-362z" />
<glyph unicode="q" horiz-adv-x="903" d="M47 317v476q0 135 73 202.5t161 69.5h3h3h9h9q68 -6 129.5 -49t87.5 -123v147h271v-1366h-285v445q-31 -59 -84 -93t-111 -42q-8 0 -15 -1t-15 -1q-88 0 -162 77.5t-74 257.5zM332 346q0 -63 22.5 -99t48.5 -42q2 -2 6 -2h5q4 0 9 1t9 3q29 8 52.5 46t23.5 93v363 q0 47 -21.5 73.5t-46.5 34.5q-6 0 -10 1t-8 1h-5h-5q-31 -6 -55.5 -34.5t-24.5 -75.5v-363z" />
<glyph unicode="r" horiz-adv-x="645" d="M76 4v1036h270v-161q53 121 111.5 148.5t122.5 27.5v-318q-121 0 -163 -17.5t-42 -125.5v-590h-299z" />
<glyph unicode="s" horiz-adv-x="817" d="M18 317h256q2 -72 30 -107.5t61 -43.5q6 0 11 -1t9 -1q41 0 75 29.5t34 66.5t-32 62.5t-81 50.5l-60 26q-32 14 -65 31q-88 45 -163 119t-75 215q0 154 96.5 222.5t213.5 78.5q14 2 30.5 3t30.5 1q133 0 240.5 -86t107.5 -235v-25h-258v31q0 53 -25.5 80.5t-56.5 31.5 q-4 2 -7 2h-7q-6 0 -11 -1t-10 -1q-29 -8 -52 -29.5t-23 -50.5l2 -8q4 -41 38.5 -67.5t84.5 -48.5l50 -24l52 -24q78 -39 145.5 -102t77.5 -180v-39q0 -125 -82 -220.5t-295 -95.5q-180 0 -261 95t-81 245z" />
<glyph unicode="t" horiz-adv-x="645" d="M18 821v219h115v285h299v-285h148v-219h-148v-547q0 -33 17.5 -50t50.5 -17q8 0 19 2l24 4q4 0 8 1t8 1q6 0 11 1t10 1v-213h-277q-86 0 -128 66.5t-42 160.5v590h-115z" />
<glyph unicode="u" horiz-adv-x="903" d="M61 176v864h299v-766q0 -29 17.5 -48t36.5 -23q4 -2 7 -2h7h7q3 0 7 2q25 4 45.5 26.5t20.5 59.5v751h285v-1036h-271v115q-18 -70 -80.5 -106t-134.5 -40h-7h-7h-3h-3q-84 2 -155 52.5t-71 150.5z" />
<glyph unicode="v" horiz-adv-x="860" d="M10 1026h316l71 -666l117 666h287l-230 -1022h-346z" />
<glyph unicode="w" horiz-adv-x="1245" d="M0 1026h287l71 -666l117 666h244l100 -666l86 666h289l-215 -1022h-303l-86 504l-86 -504h-318z" />
<glyph unicode="x" horiz-adv-x="817" d="M-10 4l241 504l-227 518h299l86 -289l90 289h299l-227 -518l227 -504h-299l-90 299l-86 -299h-313z" />
<glyph unicode="y" horiz-adv-x="817" d="M-10 1026h299l100 -680l105 680h270l-227 -1094q-35 -162 -115 -211t-207 -49q-14 0 -29.5 1t-29.5 1q-10 0 -20.5 1t-18.5 1h-14h-13v213q4 2 9 2h10q4 -2 7 -2h7q6 0 13 -1t14 -1q35 0 51 14.5t16 43.5v30z" />
<glyph unicode="z" horiz-adv-x="731" d="M33 4v213l313 576h-299v233h647v-219l-334 -561h334v-242h-661z" />
<glyph unicode="{" horiz-adv-x="516" d="M-31 608l19 7q8 3 14 8q66 27 87.5 65.5t21.5 132.5v377q0 104 82.5 150.5t205.5 46.5q12 0 24.5 -1t25.5 -1q18 -2 34.5 -3t30.5 -4q-55 -12 -93 -52t-48 -87q-2 -8 -3 -17t-1 -18v-391q0 -117 -36 -153.5t-122 -59.5q86 -10 122 -52t36 -153v-327q0 -104 27.5 -145.5 t88.5 -69.5q6 -2 13.5 -5t15.5 -8q-10 -2 -21 -2h-24q-23 -2 -44 -2h-40q-147 0 -210.5 52.5t-63.5 164.5v328q0 100 -24 143t-118 76z" />
<glyph unicode="|" horiz-adv-x="473" d="M104 4v1382h256v-1382h-256z" />
<glyph unicode="}" horiz-adv-x="516" d="M-33 -168l38 21q15 8 28 16q45 29 61.5 66.5t16.5 125.5v314q0 111 35.5 162t121.5 71q-76 0 -116.5 50.5t-40.5 134.5v348q0 94 -21.5 136t-66.5 75l-25 16l-29 18q193 0 296.5 -33.5t103.5 -183.5v-391q0 -84 45 -122t100 -48q-14 -6 -26.5 -12t-24.5 -10 q-43 -20 -68.5 -53t-25.5 -130v-356q0 -145 -88 -179t-203 -34z" />
<glyph unicode="~" horiz-adv-x="960" />
<glyph unicode="&#xa1;" horiz-adv-x="960" />
<glyph unicode="&#xa2;" horiz-adv-x="903" d="M47 47q0 84 44 149.5t99 129.5q53 63 97.5 129.5t44.5 148.5v19h276v-129q0 -66 -21.5 -106t-54.5 -77l-29 -30l-32 -35q-27 -31 -52.5 -72t-43.5 -98q0 -2 -1 -5t-3 -8q0 -4 -1 -7t-3 -7q-2 -10 -4.5 -19.5t-2.5 -15.5q0 -43 30 -69.5t65 -28.5h3h3q6 0 12 1t14 3 q35 10 64 47t29 105v32h284v-100q0 -25 -6 -57.5t-20 -65.5q-37 -82 -128.5 -150.5t-258.5 -68.5q-217 0 -310.5 102.5t-93.5 282.5zM317 750v319h306v-319h-306z" />
<glyph unicode="&#xa3;" horiz-adv-x="903" d="M76 231v248l184 101l-184 114v246l327 -217v-277zM508 231v248l186 101l-186 114v246l328 -217v-277z" />
<glyph unicode="&#xa4;" horiz-adv-x="645" d="M18 850v518h213v-518h-213zM360 850v518h220v-518h-220z" />
<glyph unicode="&#xa5;" horiz-adv-x="960" />
<glyph unicode="&#xa6;" />
<glyph unicode="&#xa7;" horiz-adv-x="960" />
<glyph unicode="&#xa8;" />
<glyph unicode="&#xa9;" horiz-adv-x="903" d="M-25 246l86 86q-39 66 -56 129t-17 125q0 61 17.5 121.5t55.5 113.5l-86 86l144 148l84 -86q41 27 91 42t103 19q12 0 24.5 1t24.5 1h16h13q57 -4 111.5 -19.5t93.5 -43.5l84 86l147 -148l-90 -86q31 -53 51.5 -117.5t20.5 -136.5q0 -45 -12.5 -98t-40.5 -107 q-4 -8 -9.5 -15t-9.5 -15l90 -86l-147 -142l-84 84q-45 -29 -102.5 -45t-114.5 -18h-11h-12q-63 0 -125.5 16.5t-111.5 46.5l-84 -84zM231 580q0 -86 54.5 -153t165.5 -67q102 0 152 63.5t50 141.5v8v9q-6 80 -61 145.5t-160 65.5q-88 0 -138 -57.5t-61 -125.5q0 -8 -1 -15 t-1 -15z" />
<glyph unicode="&#xaa;" horiz-adv-x="903" d="M-25 -39l115 186q-12 25 -18 61t-9 75q-2 29 -2 56v50v348q0 123 98.5 213t272.5 90q53 0 116.5 -10t131.5 -33l98 144l133 -86l-118 -176q23 -33 33 -72t10 -113v-377q0 -182 -100.5 -258.5t-219.5 -89.5q-14 0 -27.5 -1t-27.5 -1h-5h-5q-78 2 -148 20.5t-100 45.5 l-99 -158zM360 260q0 -37 23 -58.5t49 -25.5h5h5h10q5 0 9 2q29 6 52.5 30.5t23.5 65.5v306l-177 -248v-72zM360 465l177 244q0 57 -25 86.5t-55 33.5h-5h-6q-33 0 -59.5 -25.5t-26.5 -66.5v-272z" />
<glyph unicode="&#xab;" horiz-adv-x="903" d="M47 4v1079q0 139 104.5 221t266.5 82q176 0 275.5 -82.5t99.5 -234.5q0 -106 -12.5 -162.5t-84.5 -103.5q-10 -6 -21 -12l-24 -13q66 -18 118 -87.5t52 -264.5v-66q-8 -180 -71.5 -278t-192.5 -98q-29 0 -64.5 6t-74.5 14v213q4 0 8 -1t6 -1q8 -2 16.5 -3t12.5 -1 q49 0 62.5 53t13.5 168q0 154 -26 194t-93 40v198q57 0 73.5 40t16.5 151q0 53 -27.5 91t-62.5 38q-37 0 -51.5 -31t-18.5 -68q-2 -16 -2 -31v-28v-1022h-299z" />
<glyph unicode="&#xac;" />
<glyph unicode="&#xad;" />
<glyph unicode="&#xae;" horiz-adv-x="516" d="M96 807v100q76 0 117 50.5t41 125.5h-158v285h287v-313q0 -111 -74 -179.5t-213 -68.5z" />
<glyph unicode="&#xaf;" />
<glyph unicode="&#xb0;" />
<glyph unicode="&#xb1;" />
<glyph unicode="&#xb2;" />
<glyph unicode="&#xb3;" />
<glyph unicode="&#xb4;" />
<glyph unicode="&#xb5;" />
<glyph unicode="&#xb6;" />
<glyph unicode="&#xb7;" />
<glyph unicode="&#xb8;" />
<glyph unicode="&#xb9;" />
<glyph unicode="&#xba;" horiz-adv-x="960" />
<glyph unicode="&#xbb;" />
<glyph unicode="&#xbc;" />
<glyph unicode="&#xbd;" />
<glyph unicode="&#xbe;" />
<glyph unicode="&#xbf;" horiz-adv-x="960" />
<glyph unicode="&#xc0;" horiz-adv-x="645" d="M147 18l70 576h172l76 -576v-344h-318v344zM147 723v303h318v-303h-318z" />
<glyph unicode="&#xc1;" />
<glyph unicode="&#xc2;" horiz-adv-x="903" d="M61 332v377q0 164 100.5 247.5t250.5 83.5h39l43 215h172l-43 -229q111 -41 152.5 -139.5t45.5 -208.5v-13v-14h-270q0 61 -2 97t-10 67q0 2 -1 3t-1 3l-119 -659h4q2 0 4 -2h3q5 0 8 -1t5 -1q68 0 88.5 47t20.5 112v101h270q-10 -309 -99 -375t-319 -66l-43 -231h-172 l58 258q-74 10 -129.5 100.5t-55.5 227.5zM332 332q0 -43 2 -77t12 -67l119 662h-25q-41 0 -74.5 -32t-33.5 -95v-391z" />
<glyph unicode="&#xc3;" horiz-adv-x="1454" d="M-53 4l485 1382h922v-274h-400v-262h371v-270h-371v-306h414v-270h-731v285h-248l-86 -285h-356zM465 580h172v589h-14z" />
<glyph unicode="&#xc4;" />
<glyph unicode="&#xc5;" horiz-adv-x="960" />
<glyph unicode="&#xc6;" />
<glyph unicode="&#xc7;" horiz-adv-x="774" d="M25 709q0 174 100 252.5t229 78.5q131 0 241 -76.5t120 -240.5v-14q0 -166 -104.5 -255t-229.5 -96h-8h-8q-129 0 -234.5 88.5t-105.5 262.5z" />
<glyph unicode="&#xc8;" horiz-adv-x="903" d="M-10 176q63 27 104 90.5t60 134.5q8 27 11 52.5t3 50.5q0 29 -5 56.5t-16 47.5h-157v115h114q-2 2 -3 4t-3 4q-29 41 -52 117t-26 158v5v5v19q0 9 3 20q10 127 100 234.5t309 111.5q176 0 275.5 -122t99.5 -318v-35h-270q0 129 -31 179t-88 50q-61 0 -88 -38t-27 -95 q0 -35 8 -75t19 -81q6 -16 11 -34.5t11 -34.5l12 -39q5 -18 11 -35h262v-115h-234q2 -8 4.5 -17t2.5 -20q2 -14 3 -28.5t1 -24.5q0 -106 -64.5 -193t-161.5 -149q63 31 114.5 43t94.5 12q37 0 69 -7l60 -13l57 -15q28 -7 54 -8q33 0 68.5 17.5t72.5 54.5l58 -227 q-70 -33 -126.5 -46.5t-101.5 -13.5q-31 0 -61.5 4.5t-59.5 10.5q-10 2 -19 4t-19 4q-39 8 -80 15t-86 7q-43 0 -94.5 -9t-112.5 -32z" />
<glyph unicode="&#xc9;" />
<glyph unicode="&#xca;" horiz-adv-x="960" />
<glyph unicode="&#xcb;" horiz-adv-x="903" d="M-53 1386h356l129 -446l133 446h361l-318 -792v-72h156v-119h-156v-86h156v-114h-156v-199h-348v199h-156v114h156v86h-156v119h156v72z" />
<glyph unicode="&#xcc;" />
<glyph unicode="&#xcd;" />
<glyph unicode="&#xce;" horiz-adv-x="960" />
<glyph unicode="&#xcf;" horiz-adv-x="903" d="M33 608q0 14 1 27.5t3 28.5q10 63 44 121.5t95 93.5q-45 33 -69.5 85t-24.5 109q0 12 1 24.5t3 24.5q16 104 101 191.5t231 87.5q182 0 262 -73t94 -161q2 -12 3 -25.5t1 -25.5v-33h-256v15q0 41 -21.5 62.5t-45.5 27.5q-6 2 -11 2h-8h-5h-5q-31 -4 -55.5 -25.5 t-24.5 -52.5l-2 -8v-7q0 -3 2 -5q8 -55 83 -112l161 -122q92 -70 169 -155t77 -195q0 -100 -29 -167t-113 -110q31 -33 51.5 -68.5t30.5 -72.5q8 -25 11.5 -49.5t3.5 -44.5q0 -133 -101.5 -233.5t-271.5 -100.5q-150 0 -253.5 82t-103.5 274h256v-4v-4q-2 -4 -2 -6v-4 q0 -57 31 -90t70 -37h5h5h7q3 0 7 2q31 4 56.5 30.5t25.5 71.5t-32.5 83t-81.5 73l-63 42t-66 46q-92 61 -169 150.5t-77 236.5zM264 627q0 -4 2 -6q2 -16 12.5 -31t24.5 -25l234 -190q27 23 40 46t13 48q0 10 -2 20.5t-8 20.5q-6 14 -17.5 28.5t-25.5 26.5l-220 172 q-12 -12 -23 -27.5t-18 -31.5q-6 -12 -9 -23.5t-3 -21.5v-6z" />
<glyph unicode="&#xd0;" />
<glyph unicode="&#xd1;" horiz-adv-x="989" d="M-4 1055v13q0 7 2 13q6 121 95 220.5t265 99.5h650v-217h-72v-1381h-260v1381h-115v-1381h-260v947h-3h-3h-2q-2 -2 -4 -2h-2q-145 0 -218 94t-73 213z" />
<glyph unicode="&#xd2;" horiz-adv-x="960" />
<glyph unicode="&#xd3;" />
<glyph unicode="&#xd4;" />
<glyph unicode="&#xd5;" horiz-adv-x="1032" d="M-6 -53l127 215q-33 53 -45.5 117.5t-12.5 185.5v532q0 213 119 311.5t262 112.5q14 0 27.5 1t28.5 1h11h11q78 -4 148.5 -25.5t111.5 -58.5l101 177l176 -86l-144 -246q23 -33 26 -86.5t3 -128.5v-623q0 -199 -127 -282.5t-278 -86.5h-8h-5h-19q-9 0 -20 3 q-66 2 -127 15t-110 38l-100 -172zM379 551l231 418v39q0 84 -32.5 120.5t-73.5 36.5h-3h-3q-45 -2 -82 -41t-37 -98v-475zM393 360q0 -57 34 -90.5t75 -38.5h5h5q37 0 67.5 27t30.5 74v418z" />
<glyph unicode="&#xd6;" />
<glyph unicode="&#xd7;" />
<glyph unicode="&#xd8;" />
<glyph unicode="&#xd9;" horiz-adv-x="960" />
<glyph unicode="&#xda;" />
<glyph unicode="&#xdb;" horiz-adv-x="960" />
<glyph unicode="&#xdc;" />
<glyph unicode="&#xdd;" />
<glyph unicode="&#xde;" />
<glyph unicode="&#xdf;" />
<glyph unicode="&#xe0;" horiz-adv-x="860" d="M-61 1184v246h301v-246h-301zM340 1184v246h303v-246h-303z" />
<glyph unicode="&#xe1;" horiz-adv-x="960" />
<glyph unicode="&#xe2;" />
<glyph unicode="&#xe3;" />
<glyph unicode="&#xe4;" />
<glyph unicode="&#xe5;" />
<glyph unicode="&#xe6;" />
<glyph unicode="&#xe7;" />
<glyph unicode="&#xe8;" />
<glyph unicode="&#xe9;" horiz-adv-x="960" />
<glyph unicode="&#xea;" horiz-adv-x="960" />
<glyph unicode="&#xeb;" horiz-adv-x="960" />
<glyph unicode="&#xec;" />
<glyph unicode="&#xed;" />
<glyph unicode="&#xee;" />
<glyph unicode="&#xef;" />
<glyph unicode="&#xf0;" />
<glyph unicode="&#xf1;" horiz-adv-x="960" />
<glyph unicode="&#xf2;" horiz-adv-x="960" />
<glyph unicode="&#xf3;" horiz-adv-x="960" />
<glyph unicode="&#xf4;" horiz-adv-x="860" d="M96 1155l187 275h389l-318 -275h-258z" />
<glyph unicode="&#xf5;" horiz-adv-x="960" />
<glyph unicode="&#xf6;" horiz-adv-x="960" />
<glyph unicode="&#xf7;" />
<glyph unicode="&#xf8;" />
<glyph unicode="&#xf9;" horiz-adv-x="731" d="M76 -354l43 86q14 -4 28.5 -9.5t28.5 -9.5q20 -6 42 -9t40 -3q43 0 72.5 16.5t29.5 44.5q0 29 -25.5 50.5t-66.5 21.5q-10 0 -22.5 -3t-26.5 -7h-1q-5 -2 -8 -3t-7 -1l-41 26l98 172h115l-72 -114q6 4 12.5 5t10.5 1q10 0 18 1t16 1q78 0 134.5 -41t56.5 -94 q0 -86 -75 -134.5t-169 -48.5q-10 0 -21.5 1.5t-23.5 1.5l-23 4l-22 4z" />
<glyph unicode="&#xfa;" horiz-adv-x="960" />
<glyph unicode="&#xfb;" horiz-adv-x="960" />
<glyph unicode="&#xfc;" horiz-adv-x="960" />
<glyph unicode="&#xfd;" />
<glyph unicode="&#xfe;" />
<glyph unicode="&#xff;" />
<glyph unicode="&#x152;" />
<glyph unicode="&#x153;" horiz-adv-x="1331" d="M39 272l1 3q1 3 1 6q0 2 1 5l1 3q6 156 83 221t169 98q25 8 48.5 14.5t45.5 14.5q66 18 112 45t46 82q0 51 -29 80.5t-61 32.5h-3h-3q-4 0 -9.5 -1.5t-9.5 -1.5q-35 -8 -63.5 -45.5t-28.5 -103.5l1 -3q1 -3 1 -5t1 -5l1 -3h-301q0 6 -1 11t-1 11t-1 11.5t-1 11.5 q0 168 117.5 242.5t259.5 76.5h3h3h19q9 0 20 -2q70 -4 134 -23.5t110 -50.5q43 37 106 57.5t133 20.5q14 0 27.5 -1t27.5 -3q121 -12 222.5 -89t101.5 -218v-299h-489v-162q0 -53 28.5 -88t61.5 -39h3h3h3h3q33 4 59.5 42t26.5 118v24h287q0 -6 1 -12t1 -12v-27v-22 q0 -152 -100.5 -224.5t-219.5 -87.5q-14 0 -27.5 -1t-27.5 -1q-90 0 -169 30t-105 87q-43 -39 -95.5 -64.5t-105.5 -39.5q-27 -6 -53.5 -9.5t-53.5 -3.5q-121 0 -218 76t-97 223zM344 289q0 -53 25.5 -80t58.5 -27q4 0 9 1t9 1q39 8 70 43t31 90v177q-31 -12 -56.5 -23.5 l-46.5 -21.5q-53 -29 -76.5 -64t-23.5 -96zM834 666h202v19v17q-2 66 -18.5 121.5t-81.5 55.5q-66 0 -84 -58.5t-18 -154.5z" />
<glyph unicode="&#x178;" />
<glyph unicode="&#x2c6;" />
<glyph unicode="&#x2dc;" />
<glyph unicode="&#x2013;" />
<glyph unicode="&#x2014;" horiz-adv-x="960" />
<glyph unicode="&#x2018;" />
<glyph unicode="&#x2019;" />
<glyph unicode="&#x201a;" />
<glyph unicode="&#x201c;" horiz-adv-x="960" />
<glyph unicode="&#x201d;" horiz-adv-x="960" />
<glyph unicode="&#x201e;" />
<glyph unicode="&#x2022;" />
<glyph unicode="&#x2026;" />
<glyph unicode="&#x2039;" horiz-adv-x="903" d="M47 446v263l342 217v-246l-186 -100l186 -115v-248zM479 446v263l342 217v-246l-184 -100l184 -115v-248z" />
<glyph unicode="&#x203a;" horiz-adv-x="960" />
<glyph unicode="&#x2122;" horiz-adv-x="645" d="M18 850v518h213v-518h-213zM360 850v518h220v-518h-220z" />
<glyph unicode="&#xe000;" horiz-adv-x="1025" d="M0 1025h1025v-1025h-1025v1025z" />
<glyph unicode="&#xfb01;" horiz-adv-x="1161" d="M741 4v1036h301v-1036h-301zM741 1141v245h301v-245h-301zM33 821v205h114v115q0 119 71 182t200 63h162v-217q-63 0 -98.5 -9t-35.5 -62v-72h134v-205h-134v-817h-299v817h-114z" />
<glyph unicode="&#xfb02;" horiz-adv-x="1161" d="M727 4v1382h301v-1382h-301zM33 821v205h114v115q0 119 71 182t200 63h162v-217q-63 0 -98.5 -9t-35.5 -62v-72h134v-205h-134v-817h-299v817h-114z" />
<glyph unicode="&#xfb03;" horiz-adv-x="1806" d="M1386 4v1036h301v-1036h-301zM1386 1141v245h301v-245h-301zM678 821v205h114v115q0 119 71 182t200 63h162v-217q-63 0 -98.5 -9t-35.5 -62v-72h134v-205h-134v-817h-299v817h-114zM33 821v205h114v115q0 119 71 182t200 63h162v-217q-63 0 -98.5 -9t-35.5 -62v-72h134 v-205h-134v-817h-299v817h-114z" />
<glyph unicode="&#xfb04;" horiz-adv-x="1806" d="M1372 4v1382h301v-1382h-301zM678 821v205h114v115q0 119 71 182t200 63h162v-217q-63 0 -98.5 -9t-35.5 -62v-72h134v-205h-134v-817h-299v817h-114zM33 821v205h114v115q0 119 71 182t200 63h162v-217q-63 0 -98.5 -9t-35.5 -62v-72h134v-205h-134v-817h-299v817h-114z " />
</font>
</defs>
</svg>
